<svg width="24" height="24" viewBox="0 0 24 24" fill="none" xmlns="http://www.w3.org/2000/svg">
<path d="M9.14011 22.4024C9.12688 22.4023 9.11367 22.4014 9.10055 22.3998C9.03263 22.3915 8.96908 22.3619 8.91898 22.3153C8.86888 22.2687 8.83481 22.2075 8.82163 22.1403L7.13741 13.4809L0.879573 10.7319C0.82043 10.706 0.770379 10.6629 0.735833 10.6084C0.701287 10.5538 0.683818 10.4902 0.685664 10.4256C0.687511 10.3611 0.708588 10.2985 0.746197 10.246C0.783806 10.1935 0.836233 10.1534 0.896762 10.1309L23.1746 1.83665C23.2298 1.81611 23.2895 1.81097 23.3473 1.82177C23.4052 1.83258 23.459 1.85892 23.503 1.89798C23.547 1.93704 23.5796 1.98734 23.5972 2.0435C23.6149 2.09966 23.6169 2.15955 23.603 2.21676L19.3978 19.5892C19.3861 19.6377 19.3633 19.6829 19.3313 19.7211C19.2993 19.7594 19.2588 19.7898 19.2131 19.8099C19.1674 19.83 19.1177 19.8392 19.0678 19.8369C19.018 19.8347 18.9693 19.8209 18.9256 19.7968L12.2728 16.1248L9.43395 22.2162C9.40771 22.272 9.36614 22.3191 9.3141 22.352C9.26206 22.385 9.20171 22.4025 9.14011 22.4024V22.4024ZM1.87265 10.4598L7.55417 12.9571C7.60214 12.9782 7.64428 13.0106 7.67698 13.0516C7.70968 13.0925 7.73198 13.1408 7.74195 13.1922L9.2679 21.0376L11.8317 15.5351C11.8505 15.4949 11.8773 15.4589 11.9106 15.4294C11.9438 15.4 11.9828 15.3777 12.025 15.3639C12.0673 15.3501 12.1119 15.3452 12.1561 15.3494C12.2004 15.3535 12.2433 15.3668 12.2822 15.3882L18.866 19.0207L22.8292 2.65719L1.87265 10.4598Z" fill="#007db6"/>
<path d="M12.1255 15.9973C12.064 15.9973 12.0039 15.9797 11.9519 15.9468C11.9 15.9139 11.8586 15.8668 11.8324 15.8112C11.8062 15.7556 11.7963 15.6937 11.8039 15.6327C11.8116 15.5717 11.8364 15.5141 11.8755 15.4667L21.5186 3.77578L7.60963 13.5185C7.57475 13.5429 7.53539 13.5603 7.49381 13.5695C7.45223 13.5787 7.40923 13.5797 7.36728 13.5723C7.32533 13.5649 7.28524 13.5494 7.24931 13.5265C7.21337 13.5036 7.18229 13.4739 7.15785 13.439C7.1334 13.4041 7.11606 13.3648 7.10683 13.3232C7.09759 13.2816 7.09663 13.2386 7.10401 13.1967C7.11139 13.1547 7.12696 13.1146 7.14983 13.0787C7.1727 13.0428 7.20242 13.0117 7.23731 12.9872L23.1016 1.87492C23.1659 1.82977 23.2443 1.80945 23.3224 1.81775C23.4005 1.82604 23.4729 1.86238 23.5262 1.92002C23.5795 1.97765 23.6101 2.05268 23.6123 2.13117C23.6145 2.20965 23.5882 2.28627 23.5382 2.34681L12.3759 15.8792C12.3455 15.9162 12.3072 15.9459 12.2639 15.9663C12.2207 15.9867 12.1734 15.9973 12.1255 15.9973V15.9973Z" fill="#007db6"/>
<path d="M9.13946 22.4037C9.07461 22.4038 9.01123 22.3844 8.9575 22.3481C8.90377 22.3118 8.86215 22.2602 8.83802 22.2C8.8139 22.1398 8.80837 22.0738 8.82215 22.0104C8.83594 21.947 8.8684 21.8893 8.91535 21.8445L14.1675 16.8302C14.198 16.7997 14.2344 16.7756 14.2744 16.7593C14.3144 16.743 14.3573 16.7349 14.4004 16.7354C14.4436 16.736 14.4863 16.7451 14.5259 16.7623C14.5655 16.7795 14.6013 16.8045 14.6311 16.8357C14.6609 16.867 14.6842 16.9038 14.6996 16.9442C14.715 16.9846 14.7221 17.0276 14.7207 17.0707C14.7192 17.1139 14.7091 17.1563 14.6911 17.1956C14.673 17.2348 14.6472 17.27 14.6153 17.2991L9.36324 22.3135C9.30302 22.3712 9.22287 22.4035 9.13946 22.4037V22.4037Z" fill="#007db6"/>
</svg>
