<?xml version="1.0" encoding="utf-8"?>
<!-- Generator: Adobe Illustrator 25.3.1, SVG Export Plug-In . SVG Version: 6.00 Build 0)  -->
<svg version="1.1" id="Layer_1" xmlns="http://www.w3.org/2000/svg" xmlns:xlink="http://www.w3.org/1999/xlink" x="0px" y="0px"
	 viewBox="0 0 201.5 201.5" style="enable-background:new 0 0 201.5 201.5;" xml:space="preserve">
<style type="text/css">
	.st0{fill:#FAFDFF;}
	.st1{fill:#E9356E;}
	.st2{fill:#C4205C;}
	.st3{fill:#F5EFFF;}
	.st4{fill:#5D46C2;}
	.st5{fill:#FF8881;}
	.st6{fill:#19274B;}
	.st7{fill:#F55B5D;}
	.st8{fill:#D1373F;}
	.st9{opacity:0.5;}
	.st10{fill:#33476D;}
	.st11{fill:none;stroke:#00AEEF;stroke-width:25;stroke-miterlimit:10;}
	.st12{fill:#FFFFFF;}
	.st13{fill-rule:evenodd;clip-rule:evenodd;fill:#FAFDFF;}
</style>
<circle class="st0" cx="100.9" cy="100.8" r="100"/>
<g>
	<g>
		<g>
			<path class="st1" d="M166.5,174.9l-65.5,10.6l-65.7-10.6c0,0,1.8-8.3,4.3-16.7c2.5-8.4,7.7-11.9,14.4-13.6
				c6.7-1.7,33.2-10,33.2-10l13.6-1.1l0.1,0l0.1,0l12.3,1c0,0,27.8,8.3,34.5,10.1c6.7,1.7,11.9,5.2,14.4,13.6
				S166.5,174.9,166.5,174.9z"/>
		</g>
		<g>
			<g>
				<path class="st2" d="M139,168.8h-16c-0.4,0-0.7,0.3-0.7,0.7v5.5h1.4v-4.8h14.7v4.8h1.4v-5.5C139.7,169.1,139.4,168.8,139,168.8z
					"/>
			</g>
		</g>
		<g>
			<circle class="st3" cx="100.1" cy="153" r="1.5"/>
		</g>
		<g>
			<circle class="st3" cx="100.1" cy="161.3" r="1.5"/>
		</g>
		<g>
			<circle class="st3" cx="100.1" cy="169.5" r="1.5"/>
		</g>
		<g>
			<polygon class="st4" points="100.9,133.5 100.9,133.5 100.9,133.5 			"/>
		</g>
		<g>
			<polygon class="st4" points="100.9,133.5 100.8,133.5 100.8,133.5 			"/>
		</g>
	</g>
	<g>
		<g>
			<g>
				<path class="st5" d="M113,137.9c0,0-3.4,6.4-12.9,6.4c-9.2,0-13-6.7-13-6.7l0.6-4.6l0.1-0.8l0.9-7.2l22.7,0.6l0.4,2.7l0.1,0.9
					L113,137.9z"/>
			</g>
			<g>
				<path class="st2" d="M87.8,132.2c0,0-8.1,1.4-14.1,6.6c0,0,1.7,10.2,13.4,20.3l13-14.9C100.1,144.2,91.4,140.9,87.8,132.2z"/>
			</g>
			<g>
				<path class="st2" d="M112.2,132.2c0,0,8.1,1.4,14.1,6.6c0,0-1.7,10.2-13.4,20.3l-13-14.9C99.8,144.2,108.5,140.9,112.2,132.2z"
					/>
			</g>
			<g>
				<path class="st6" d="M111.7,128.4c-5.1,4.4-13.5,6-24,4.6l0.1-0.8l0.9-7.2l22.7,0.6L111.7,128.4z"/>
			</g>
		</g>
		<g>
			<g>
				<path class="st7" d="M80.1,106.3c-5.1,7.1-16,2.3-15.3-7.1c0.7-8.5,10.2-7.2,10.2-7.2L80.1,106.3z"/>
			</g>
			<g>
				<path class="st8" d="M75.5,106.5c-0.3,0-0.6-0.2-0.7-0.5c-1-4-5.2-7.8-5.2-7.8c-0.3-0.2-0.3-0.7-0.1-1c0.2-0.3,0.7-0.3,1-0.1
					c0.2,0.2,4.5,4.1,5.6,8.5c0.1,0.4-0.1,0.7-0.5,0.8C75.6,106.5,75.5,106.5,75.5,106.5z"/>
			</g>
			<g>
				<path class="st8" d="M73.7,102.6c-0.1,0-0.1,0-0.2,0c-1.9-0.6-3.6-0.2-3.6-0.2c-0.4,0.1-0.7-0.2-0.8-0.5
					c-0.1-0.4,0.1-0.7,0.5-0.8c0.1,0,2.1-0.5,4.4,0.3c0.4,0.1,0.5,0.5,0.4,0.9C74.3,102.5,74,102.6,73.7,102.6z"/>
			</g>
		</g>
		<g>
			<g>
				<path class="st7" d="M117.7,106.3c5.1,7.1,16,2.3,15.3-7.1c-0.7-8.5-10.2-7.2-10.2-7.2L117.7,106.3z"/>
			</g>
			<g>
				<path class="st8" d="M122.4,106.5c-0.1,0-0.1,0-0.2,0c-0.4-0.1-0.6-0.5-0.5-0.8c1.1-4.5,5.5-8.4,5.6-8.5c0.3-0.2,0.7-0.2,1,0.1
					c0.2,0.3,0.2,0.7-0.1,1c0,0-4.2,3.8-5.2,7.8C123,106.3,122.7,106.5,122.4,106.5z"/>
			</g>
			<g>
				<path class="st8" d="M124.1,102.6c-0.3,0-0.5-0.2-0.6-0.5c-0.1-0.4,0.1-0.7,0.4-0.9c2.2-0.7,4.3-0.3,4.4-0.3
					c0.4,0.1,0.6,0.4,0.5,0.8c-0.1,0.4-0.4,0.6-0.8,0.5c0,0-1.8-0.4-3.6,0.2C124.3,102.6,124.2,102.6,124.1,102.6z"/>
			</g>
		</g>
		<g>
			<path class="st5" d="M73,81.6c0,0-2.5,15.4,3.9,30.4c5.8,13.6,13.6,17.9,21.8,18c9.4,0.1,29-5.3,25.9-49.8
				C122.6,50.2,75.5,51.3,73,81.6z"/>
		</g>
		<g class="st9">
			<ellipse class="st7" cx="84" cy="106.2" rx="6.5" ry="3"/>
		</g>
		<g class="st9">
			<ellipse class="st7" cx="116.5" cy="106.2" rx="6.5" ry="3"/>
		</g>
		<g>
			<path class="st6" d="M125.8,92.7c0,0,0.4,11.1-2.9,25.1c-5.3,22.3-23.4,19.4-23.4,19.4s-17.8,3-23.1-19.4
				c-3.3-13.9-4.7-24.3-4.7-24.3l4.2-5.5c0,0,2,19.2,9.4,22.6c0,0,3.3-5,14.2-0.3c11-4.7,14.6,0.3,14.6,0.3c7.4-3.3,8-21.9,8-21.9
				L125.8,92.7z"/>
		</g>
		<g>
			<path class="st6" d="M78.6,72.3c0,0,1.8,11.5-3.1,15.8v9.5l-2.9,0.9c0,0-2.5-12.7-3.5-19.8c-1.9-13.7,11-15.5,11-15.5L78.6,72.3z
				"/>
		</g>
		<g>
			<path class="st6" d="M119,72.3c0,0-1.8,11.5,3.1,15.8v9.5l2.9,0.9c0,0,2.5-12.7,3.5-19.8c1.9-13.7-11-15.5-11-15.5L119,72.3z"/>
		</g>
		<g>
			<path class="st6" d="M70.9,71.6c0,0-8.6-15.2,11.8-20.8c14.2-3.9,33.5,0.2,39.7-9.9c0,0,1.7,6.9-1.7,11.4c0,0,9.3-2.8,11.9-8.3
				c0,0,3.2,8.6-1.8,15.2c0,0,3.8,1.2,7.2-1.4c0,0-0.3,18.7-14.1,17.6c0,0-2.9-2.2-8-3.8c-5.1-1.5-9.2,6.2-22.3,2.9
				C81.9,71.6,77,69.7,70.9,71.6z"/>
		</g>
		<g>
			<g>
				<path class="st10" d="M100,122.6c-1.9,0-3.5-0.7-3.6-0.7c-0.3-0.1-0.4-0.5-0.3-0.7c0.1-0.3,0.5-0.4,0.7-0.3c0,0,3.5,1.5,6.3-0.3
					c0.3-0.2,0.6-0.1,0.8,0.2c0.2,0.3,0.1,0.6-0.2,0.8C102.5,122.3,101.2,122.6,100,122.6z"/>
			</g>
		</g>
		<g>
			<path class="st7" d="M102,107.7C102,107.7,101.9,107.7,102,107.7l-4.2-0.3c-0.3,0-0.5-0.3-0.5-0.6c0-0.3,0.3-0.5,0.6-0.5l3.5,0.3
				L100.3,96c0-0.3,0.2-0.6,0.5-0.6c0.3,0,0.6,0.2,0.6,0.5l1.1,11.2c0,0.2,0,0.3-0.2,0.5C102.3,107.6,102.1,107.7,102,107.7z"/>
		</g>
		<g>
			<path class="st3" d="M91.1,112.8c5.1,0.8,10.3,1.1,17.2-0.2c0,0-0.6,7.4-8.8,7.4C92.5,120,91.1,112.8,91.1,112.8z"/>
		</g>
		<g>
			<path class="st6" d="M90.7,96c0,2-0.9,3.5-2,3.5c-1.1,0-2-1.6-2-3.5c0-2,0.9-3.5,2-3.5C89.8,92.4,90.7,94,90.7,96z"/>
		</g>
		<g>
			<path class="st6" d="M111.8,96c0,2-0.9,3.5-2,3.5c-1.1,0-2-1.6-2-3.5c0-2,0.9-3.5,2-3.5C111,92.4,111.8,94,111.8,96z"/>
		</g>
		<g>
			<g>
				<path class="st6" d="M85.2,88.2c1.4-0.7,3.4-1.7,5.4-2c1.1-0.2,1.7-1.2,1.4-2.2l-0.1-0.2c-0.3-0.7-1-1.2-1.8-1.1
					c-1.8,0.2-4.9,0.8-6.9,2.8c-0.4,0.4-0.6,1.1-0.4,1.7l0,0C83.1,88.2,84.3,88.7,85.2,88.2z"/>
			</g>
		</g>
		<g>
			<g>
				<path class="st6" d="M113.4,88.2c-1.4-0.7-3.4-1.7-5.4-2c-1.1-0.2-1.7-1.2-1.4-2.2l0.1-0.2c0.3-0.7,1-1.2,1.8-1.1
					c1.8,0.2,4.9,0.8,6.9,2.8c0.4,0.4,0.6,1.1,0.4,1.7l0,0C115.5,88.2,114.4,88.7,113.4,88.2z"/>
			</g>
		</g>
	</g>
</g>
<circle class="st11" cx="100.9" cy="100.8" r="88.2"/>
<g>
	<path class="st12" d="M22.8,130c0,0.4-0.2,0.8-0.4,1.2s-0.5,0.7-0.9,1l-0.6-0.7c0.4-0.3,0.7-0.6,0.9-1c0.2-0.4,0.2-0.8,0.1-1.3
		c-0.1-0.4-0.4-0.8-0.7-1c-0.3-0.2-0.7-0.3-1.1-0.1c-0.4,0.1-0.6,0.3-0.8,0.7s-0.2,0.8-0.2,1.5l0,0.5c0,0.6-0.1,1.1-0.3,1.5
		c-0.2,0.4-0.6,0.8-1.1,0.9c-0.4,0.1-0.7,0.1-1.1,0c-0.4-0.1-0.7-0.3-1-0.6c-0.3-0.3-0.5-0.6-0.7-1.1c-0.1-0.4-0.2-0.8-0.1-1.2
		c0.1-0.4,0.2-0.7,0.3-1s0.4-0.5,0.6-0.6l0.6,0.7c-0.2,0.2-0.4,0.4-0.6,0.7s-0.1,0.7,0,1.1c0.1,0.4,0.3,0.7,0.7,0.9
		c0.3,0.2,0.6,0.2,1,0.1c0.3-0.1,0.5-0.3,0.6-0.6c0.1-0.3,0.2-0.7,0.2-1.2l0-0.5c0-0.7,0.2-1.3,0.4-1.8c0.2-0.5,0.7-0.8,1.3-1
		c0.5-0.2,0.9-0.2,1.4,0c0.4,0.1,0.8,0.4,1,0.7c0.3,0.3,0.5,0.7,0.6,1.1C22.8,129.2,22.8,129.6,22.8,130z"/>
	<path class="st12" d="M21.1,124.7c-0.1,0.4-0.2,0.7-0.5,0.9c-0.2,0.2-0.5,0.4-0.9,0.5c-0.6,0.2-1.1,0.1-1.5-0.3s-0.7-0.9-0.9-1.5
		c-0.1-0.3-0.1-0.6-0.1-0.9c0-0.3,0-0.5,0.1-0.7l-0.3,0.1c-0.4,0.1-0.7,0.3-0.9,0.7c-0.2,0.3-0.2,0.7-0.1,1.2
		c0.1,0.3,0.2,0.6,0.4,0.8s0.4,0.4,0.7,0.5l-0.3,0.8c-0.4-0.1-0.7-0.4-1-0.7c-0.3-0.3-0.5-0.7-0.6-1.2c-0.2-0.7-0.1-1.4,0.1-1.9
		c0.3-0.5,0.8-0.9,1.5-1l3.5-0.9l0.2,0.9l-0.8,0.2l0,0c0.3,0.1,0.6,0.3,0.9,0.5c0.3,0.3,0.5,0.6,0.6,1
		C21.2,124,21.2,124.3,21.1,124.7z M19.8,122.9c-0.2-0.2-0.5-0.4-0.8-0.5s-0.6-0.1-0.9,0c-0.1,0.2-0.1,0.4-0.1,0.7
		c0,0.3,0,0.5,0.1,0.8c0.1,0.5,0.3,0.8,0.6,1c0.3,0.2,0.6,0.3,0.9,0.2c0.3-0.1,0.5-0.3,0.7-0.5s0.1-0.6,0.1-0.9
		C20.2,123.4,20,123.1,19.8,122.9z"/>
	<path class="st12" d="M19.6,118.8c-0.2,0.5-0.5,0.9-0.9,1.2s-0.9,0.5-1.4,0.6c-0.6,0.1-1.1,0.1-1.6-0.1c-0.5-0.2-0.9-0.4-1.3-0.8
		s-0.6-0.8-0.7-1.4c-0.1-0.5-0.1-1.1,0.1-1.5c0.2-0.5,0.5-0.9,0.9-1.2s0.9-0.5,1.4-0.6c0.6-0.1,1.1-0.1,1.6,0.1
		c0.5,0.2,0.9,0.4,1.3,0.8s0.6,0.8,0.7,1.4S19.7,118.3,19.6,118.8z M18.4,116.5c-0.2-0.3-0.5-0.5-0.9-0.6c-0.4-0.1-0.8-0.1-1.2-0.1
		c-0.4,0.1-0.8,0.2-1.1,0.5c-0.3,0.2-0.5,0.5-0.6,0.8c-0.1,0.3-0.1,0.7-0.1,1c0.1,0.3,0.2,0.6,0.4,0.9c0.2,0.3,0.5,0.5,0.9,0.6
		s0.8,0.1,1.2,0.1c0.4-0.1,0.8-0.2,1.1-0.5c0.3-0.2,0.5-0.5,0.6-0.8c0.1-0.3,0.1-0.7,0.1-1C18.8,117,18.6,116.7,18.4,116.5z"/>
	<path class="st12" d="M10.3,108.6c0-0.4,0-0.8,0.2-1.1c0.2-0.4,0.4-0.7,0.7-0.9s0.7-0.4,1.1-0.4c0.4,0,0.7,0,1,0.2
		c0.3,0.2,0.6,0.4,0.7,0.7l0,0c0.1-0.4,0.3-0.7,0.6-1s0.7-0.4,1.1-0.5c0.4,0,0.8,0,1.2,0.2c0.4,0.2,0.7,0.5,0.9,0.8
		c0.2,0.3,0.3,0.7,0.4,1.1l0.2,3l-8,0.6L10.3,108.6z M13.5,107.6c-0.1-0.2-0.3-0.3-0.5-0.4c-0.2-0.1-0.4-0.1-0.6-0.1
		c-0.2,0-0.4,0.1-0.6,0.2c-0.2,0.1-0.3,0.3-0.5,0.5c-0.1,0.2-0.2,0.4-0.1,0.7l0.2,1.9l2.6-0.2l-0.1-1.9
		C13.7,108,13.7,107.8,13.5,107.6z M17.1,107.1c-0.2-0.2-0.3-0.3-0.6-0.4s-0.4-0.1-0.7-0.1c-0.2,0-0.4,0.1-0.6,0.2
		c-0.2,0.1-0.4,0.3-0.5,0.5s-0.2,0.5-0.1,0.8l0.2,2.1l2.7-0.2l-0.2-2.1C17.4,107.5,17.3,107.3,17.1,107.1z"/>
	<path class="st12" d="M8.4,101.2l1.2,0.7l0,0.8l-1.2-0.5L8.4,101.2z M11.3,103c-0.1,0.2-0.3,0.4-0.5,0.5c-0.2,0.1-0.4,0.2-0.7,0.2
		l0-0.8c0.2,0,0.3-0.1,0.5-0.2c0.1-0.1,0.2-0.3,0.2-0.5c0-0.2-0.1-0.4-0.2-0.5c-0.1-0.1-0.3-0.2-0.5-0.2l0-0.8
		c0.3,0,0.5,0.1,0.7,0.2s0.4,0.3,0.5,0.5s0.2,0.5,0.2,0.7S11.4,102.8,11.3,103z M18,103.7c-0.2,0.3-0.4,0.6-0.7,0.8
		c-0.3,0.2-0.6,0.3-1,0.3c-0.6,0-1.1-0.2-1.4-0.6c-0.3-0.4-0.5-1-0.5-1.7c0-0.3,0-0.7,0.1-0.9c0.1-0.3,0.2-0.5,0.2-0.7l-0.3,0
		c-0.4,0-0.8,0.2-1,0.5S13,102,13,102.4c0,0.3,0.1,0.6,0.2,0.9c0.1,0.3,0.3,0.5,0.6,0.6l-0.5,0.7c-0.3-0.2-0.6-0.5-0.8-0.9
		c-0.2-0.4-0.3-0.8-0.3-1.3c0-0.8,0.2-1.4,0.6-1.8c0.4-0.4,1-0.7,1.7-0.7l3.6-0.1l0,0.9l-0.8,0l0,0c0.3,0.2,0.5,0.4,0.7,0.7
		s0.3,0.7,0.3,1.1C18.3,103,18.2,103.4,18,103.7z M17.2,101.7c-0.2-0.3-0.4-0.5-0.7-0.6s-0.6-0.2-0.9-0.2c-0.1,0.2-0.2,0.4-0.3,0.7
		c-0.1,0.3-0.1,0.5-0.1,0.8c0,0.5,0.1,0.9,0.3,1.2c0.2,0.3,0.5,0.4,0.8,0.4c0.3,0,0.6-0.1,0.8-0.4c0.2-0.2,0.3-0.5,0.3-0.9
		C17.4,102.2,17.3,101.9,17.2,101.7z"/>
	<path class="st12" d="M17.9,97.6c-0.3,0.4-0.7,0.7-1.1,1c-0.5,0.2-1,0.3-1.6,0.3c-0.6,0-1.1-0.2-1.5-0.5c-0.4-0.3-0.8-0.6-1-1.1
		c-0.2-0.4-0.3-0.9-0.3-1.5c0-0.6,0.2-1.1,0.5-1.5c0.3-0.4,0.7-0.7,1.2-0.8l0.3,0.9c-0.4,0.1-0.6,0.3-0.8,0.6
		c-0.2,0.3-0.3,0.6-0.3,1c0,0.3,0.1,0.6,0.2,0.9c0.2,0.3,0.4,0.5,0.7,0.7c0.3,0.2,0.7,0.3,1.1,0.3c0.4,0,0.8,0,1.1-0.2
		c0.3-0.2,0.6-0.4,0.8-0.6c0.2-0.3,0.3-0.6,0.3-0.9c0-0.4-0.1-0.7-0.2-1c-0.2-0.3-0.4-0.5-0.8-0.7l0.4-0.8c0.5,0.2,0.8,0.5,1.1,1
		c0.3,0.4,0.4,1,0.3,1.6C18.4,96.7,18.2,97.2,17.9,97.6z"/>
	<path class="st12" d="M14.9,90.4l-0.7-0.1l0.1-0.9l-3.5-0.6l0.4-2.4c0.1-0.8,0.4-1.5,0.9-2c0.4-0.5,1-0.9,1.6-1.1
		c0.7-0.2,1.4-0.3,2.1-0.1c0.8,0.1,1.4,0.4,2,0.8c0.5,0.4,0.9,1,1.2,1.6s0.3,1.4,0.2,2.2l-0.4,2.4L15,89.5L14.9,90.4z M17.8,85.3
		c-0.4-0.6-1.2-1-2.1-1.2s-1.8,0-2.4,0.4c-0.6,0.5-1,1.1-1.2,2.1l-0.2,1.4l2.6,0.4l0.3-2l0.7,0.1l-0.3,2l2.9,0.5l0.2-1.4
		C18.4,86.7,18.3,86,17.8,85.3z"/>
	<path class="st12" d="M12.6,77.2c-0.1,0-0.2,0-0.3,0s-0.1,0.1-0.2,0.3c0,0.1,0,0.3,0,0.4l-0.7-0.2c0-0.2,0-0.3,0.1-0.5
		c0.1-0.3,0.2-0.6,0.4-0.7s0.4-0.2,0.7-0.1c0.2,0.1,0.4,0.2,0.5,0.3c0.1,0.2,0.3,0.4,0.4,0.6l-0.5,0.3
		C12.9,77.4,12.8,77.2,12.6,77.2z M12.5,79.2l0.2-0.8l1.5-0.8l0.1,0l-0.2,0.9l-0.8,0.4l0,0.1l0.5,0.7l-0.2,0.9l-0.1,0L12.5,79.2z
		 M20.2,82.2c-0.2,0.3-0.5,0.5-0.8,0.6s-0.7,0.1-1,0c-0.6-0.1-1-0.5-1.2-1c-0.2-0.5-0.3-1.1-0.1-1.8c0.1-0.3,0.2-0.6,0.3-0.9
		s0.3-0.5,0.4-0.6l-0.3-0.1c-0.4-0.1-0.8,0-1.1,0.2c-0.3,0.2-0.5,0.6-0.6,1c-0.1,0.3-0.1,0.6,0,0.9c0.1,0.3,0.2,0.5,0.4,0.8
		l-0.7,0.6c-0.3-0.3-0.5-0.7-0.6-1.1c-0.1-0.4-0.1-0.9,0-1.3c0.2-0.7,0.5-1.3,1-1.6s1.1-0.4,1.8-0.2l3.5,0.9L21,79.3l-0.8-0.2l0,0
		c0.2,0.2,0.4,0.5,0.5,0.9s0.1,0.7,0,1.1C20.6,81.6,20.4,81.9,20.2,82.2z M19.9,80c-0.1-0.3-0.3-0.6-0.5-0.8s-0.5-0.4-0.8-0.5
		c-0.2,0.1-0.3,0.3-0.4,0.6s-0.2,0.5-0.3,0.8c-0.1,0.5-0.1,0.9,0,1.2c0.1,0.3,0.4,0.5,0.7,0.6c0.3,0.1,0.6,0,0.8-0.2
		c0.2-0.2,0.4-0.4,0.5-0.8C20,80.6,20,80.3,19.9,80z"/>
	<path class="st12" d="M21.2,76.7c-0.5,0.2-1.1,0.2-1.8,0L16,75.6l0.3-0.9l3.3,1.1c0.5,0.2,0.9,0.2,1.3,0c0.3-0.2,0.5-0.4,0.7-0.8
		c0.1-0.3,0.1-0.6,0-0.9c-0.1-0.3-0.2-0.5-0.5-0.8c-0.2-0.2-0.5-0.4-0.8-0.5l-3.1-1l0.3-0.9l5.5,1.8l-0.3,0.9l-0.8-0.3l0,0
		c0.2,0.2,0.4,0.5,0.5,0.9c0.1,0.4,0.1,0.8-0.1,1.1C22.1,76.1,21.7,76.5,21.2,76.7z"/>
	<path class="st12" d="M17.6,66.8l-0.8-0.4l2.1-4.9l0.8,0.4l-0.9,2l6.5,2.8L25,67.6l-6.6-2.8L17.6,66.8z"/>
	<path class="st12" d="M26.5,63.7c-0.4,0.3-0.9,0.4-1.4,0.4c-0.5,0-1-0.1-1.6-0.4c-0.5-0.2-0.9-0.6-1.2-1c-0.3-0.4-0.5-0.9-0.6-1.4
		c-0.1-0.5,0-1,0.3-1.5c0.2-0.5,0.6-0.9,1-1.1c0.4-0.2,0.9-0.4,1.3-0.4c0.5,0,1,0.1,1.5,0.4c0.1,0,0.2,0.1,0.3,0.2l-2,4
		c0.4,0.2,0.8,0.3,1.1,0.2c0.4,0,0.7-0.1,0.9-0.3s0.5-0.4,0.6-0.7c0.3-0.7,0.3-1.3-0.2-2l0.7-0.5c0.3,0.4,0.5,0.9,0.5,1.4
		c0.1,0.5-0.1,1-0.3,1.5C27.3,63,27,63.4,26.5,63.7z M24.3,59.3c-0.3,0-0.5,0.1-0.8,0.2s-0.5,0.4-0.6,0.7c-0.2,0.4-0.2,0.8-0.1,1.2
		c0.1,0.4,0.4,0.8,0.7,1.1l1.6-3.1C24.8,59.4,24.6,59.3,24.3,59.3z"/>
	<path class="st12" d="M22.6,54.5l7,4l-0.5,0.8l-7-4L22.6,54.5z"/>
	<path class="st12" d="M30.6,56.4c-0.5,0.2-0.9,0.3-1.5,0.3c-0.5,0-1-0.2-1.5-0.5c-0.5-0.3-0.8-0.7-1.1-1.1
		c-0.3-0.4-0.4-0.9-0.4-1.4c0-0.5,0.1-1,0.4-1.4c0.3-0.5,0.7-0.8,1.1-1c0.4-0.2,0.9-0.3,1.4-0.2c0.5,0.1,1,0.2,1.5,0.5
		c0.1,0,0.2,0.1,0.2,0.2l-2.4,3.8c0.4,0.2,0.7,0.3,1.1,0.3c0.4,0,0.7-0.1,0.9-0.2c0.3-0.2,0.5-0.4,0.7-0.6c0.4-0.6,0.4-1.3,0-2
		l0.8-0.5c0.3,0.4,0.4,0.9,0.4,1.4c0,0.5-0.1,1-0.5,1.5C31.4,55.8,31,56.1,30.6,56.4z M28.7,51.8c-0.3,0-0.5,0-0.8,0.1
		s-0.5,0.3-0.7,0.7C27,53,26.9,53.4,27,53.8c0.1,0.4,0.3,0.8,0.6,1.1l1.8-2.9C29.2,51.9,29,51.8,28.7,51.8z"/>
	<path class="st12" d="M34,51.3c-0.5,0.2-1,0.2-1.5,0.2c-0.5-0.1-1-0.3-1.5-0.6s-0.8-0.8-1-1.2c-0.2-0.5-0.3-1-0.3-1.5
		c0-0.5,0.2-1,0.6-1.4c0.4-0.5,0.8-0.8,1.3-1c0.5-0.2,1-0.2,1.5,0l-0.2,0.9c-0.4-0.1-0.7-0.1-1,0c-0.3,0.1-0.6,0.3-0.8,0.6
		c-0.2,0.3-0.3,0.6-0.3,0.9c0,0.3,0,0.7,0.2,1s0.4,0.6,0.8,0.9c0.3,0.3,0.7,0.4,1.1,0.5c0.4,0.1,0.7,0,1-0.1
		c0.3-0.1,0.6-0.3,0.8-0.6c0.2-0.3,0.4-0.6,0.4-1c0-0.3-0.1-0.7-0.3-1l0.8-0.5c0.3,0.4,0.4,0.9,0.4,1.4c0,0.5-0.2,1-0.6,1.5
		C34.8,50.7,34.4,51.1,34,51.3z"/>
	<path class="st12" d="M37.5,46.6c-0.5,0.2-1,0.2-1.5,0.1c-0.5-0.1-1-0.4-1.4-0.7c-0.4-0.4-0.7-0.8-0.9-1.3c-0.2-0.5-0.2-1-0.2-1.5
		c0.1-0.5,0.3-1,0.7-1.4c0.4-0.4,0.8-0.7,1.3-0.9c0.5-0.2,1-0.2,1.5-0.1c0.5,0.1,1,0.4,1.4,0.7s0.7,0.8,0.9,1.3s0.2,1,0.2,1.5
		c-0.1,0.5-0.3,1-0.7,1.4C38.5,46.1,38,46.4,37.5,46.6z M38.6,44.3c0.1-0.3,0-0.7-0.1-1s-0.4-0.7-0.7-1c-0.3-0.3-0.7-0.5-1.1-0.5
		c-0.4-0.1-0.7-0.1-1,0.1c-0.3,0.1-0.6,0.3-0.8,0.6c-0.2,0.3-0.4,0.6-0.4,0.9s0,0.7,0.1,1s0.4,0.7,0.7,1c0.3,0.3,0.7,0.5,1.1,0.5
		c0.4,0.1,0.7,0.1,1-0.1s0.6-0.3,0.8-0.6C38.4,44.9,38.5,44.6,38.6,44.3z"/>
	<path class="st12" d="M37.7,38.1l0.6,0.6l0,0c-0.1-0.3-0.1-0.7,0-1c0.1-0.4,0.3-0.7,0.5-0.9c0.3-0.3,0.6-0.5,1-0.5
		c0.4-0.1,0.7,0,1,0.1c-0.1-0.4-0.1-0.8,0-1.1c0.1-0.4,0.3-0.7,0.6-1c0.5-0.5,1-0.6,1.5-0.6s1,0.3,1.5,0.8L47,37l-0.7,0.6l-2.5-2.5
		c-0.4-0.4-0.7-0.6-1-0.6c-0.3,0-0.6,0.1-0.9,0.4c-0.2,0.2-0.3,0.4-0.4,0.7c0,0.3,0,0.6,0.1,0.8s0.3,0.5,0.5,0.8l2.3,2.3l-0.7,0.7
		l-2.4-2.5c-0.4-0.4-0.7-0.6-1-0.6s-0.6,0.1-0.9,0.4c-0.2,0.2-0.3,0.4-0.4,0.7c0,0.3,0,0.6,0.1,0.9c0.1,0.3,0.3,0.6,0.5,0.8l2.2,2.3
		l-0.7,0.7l-4-4.1L37.7,38.1z"/>
	<path class="st12" d="M50.3,29.5l0.5,0.6L48,32.3l-0.5-0.6L50.3,29.5z"/>
	<path class="st12" d="M56.8,29.7c-0.4,0.1-0.8,0-1.2-0.1c-0.4-0.1-0.8-0.3-1.2-0.7l0.6-0.8c0.4,0.3,0.8,0.5,1.2,0.6
		c0.4,0.1,0.9,0,1.3-0.2c0.4-0.2,0.6-0.6,0.8-0.9c0.1-0.4,0.1-0.8-0.1-1.1c-0.2-0.3-0.5-0.5-0.8-0.6c-0.4-0.1-0.8,0-1.5,0.1
		l-0.5,0.1c-0.6,0.1-1.1,0.1-1.6,0.1c-0.5-0.1-0.9-0.4-1.2-0.9c-0.2-0.3-0.3-0.7-0.3-1.1c0-0.4,0.1-0.8,0.3-1.1
		c0.2-0.4,0.5-0.7,0.9-0.9c0.4-0.2,0.8-0.4,1.1-0.4s0.7,0,1,0.1c0.3,0.1,0.6,0.2,0.7,0.4L55.7,23c-0.2-0.2-0.5-0.3-0.8-0.4
		s-0.7,0-1.1,0.3c-0.3,0.2-0.6,0.5-0.7,0.8c-0.1,0.3-0.1,0.7,0.1,1c0.2,0.3,0.4,0.4,0.7,0.5c0.3,0,0.7,0,1.2-0.1l0.5-0.1
		c0.7-0.1,1.3-0.2,1.8,0c0.5,0.1,0.9,0.4,1.3,1c0.3,0.4,0.4,0.9,0.4,1.3c0,0.4-0.2,0.8-0.4,1.2c-0.2,0.4-0.5,0.6-0.9,0.9
		C57.5,29.5,57.2,29.6,56.8,29.7z"/>
	<path class="st12" d="M61.5,26.8c-0.4,0-0.7-0.1-1-0.2c-0.3-0.2-0.5-0.4-0.7-0.7c-0.3-0.5-0.3-1.1-0.1-1.6s0.7-0.9,1.3-1.3
		c0.3-0.2,0.6-0.3,0.9-0.3c0.3-0.1,0.5-0.1,0.7-0.1l-0.2-0.3c-0.2-0.4-0.5-0.6-0.9-0.7c-0.4-0.1-0.8,0-1.2,0.2
		c-0.3,0.1-0.5,0.3-0.7,0.6s-0.3,0.5-0.3,0.8L58.5,23c0-0.4,0.2-0.8,0.4-1.1c0.3-0.4,0.6-0.6,1-0.9c0.7-0.4,1.3-0.5,1.9-0.3
		c0.6,0.2,1,0.5,1.4,1.2l1.7,3.2l-0.8,0.4l-0.4-0.7l0,0c0,0.3-0.1,0.6-0.3,1c-0.2,0.3-0.5,0.6-0.8,0.8
		C62.2,26.7,61.8,26.8,61.5,26.8z M62.9,25.1c0.2-0.3,0.2-0.6,0.3-0.9c0-0.3-0.1-0.6-0.2-0.9c-0.2,0-0.4,0-0.7,0
		c-0.3,0.1-0.5,0.2-0.8,0.3c-0.5,0.2-0.7,0.5-0.9,0.8s-0.1,0.6,0.1,0.9c0.1,0.3,0.4,0.4,0.7,0.5c0.3,0.1,0.6,0,0.9-0.2
		C62.5,25.6,62.8,25.4,62.9,25.1z"/>
	<path class="st12" d="M66.9,23.9c-0.5-0.1-1-0.3-1.4-0.6s-0.7-0.7-1-1.3c-0.2-0.5-0.3-1-0.3-1.6c0-0.5,0.2-1,0.5-1.4s0.7-0.8,1.2-1
		c0.5-0.2,1-0.3,1.5-0.2c0.5,0.1,1,0.3,1.4,0.6c0.4,0.3,0.7,0.7,1,1.3c0.2,0.5,0.3,1,0.3,1.6c0,0.5-0.2,1-0.5,1.4s-0.7,0.8-1.2,1
		C67.9,23.9,67.4,24,66.9,23.9z M68.8,22.2c0.2-0.3,0.3-0.6,0.3-1c0-0.4,0-0.8-0.2-1.2c-0.2-0.4-0.4-0.7-0.7-0.9
		c-0.3-0.2-0.6-0.4-1-0.4s-0.7,0-1,0.1c-0.3,0.1-0.6,0.4-0.8,0.6c-0.2,0.3-0.3,0.6-0.4,1c0,0.4,0,0.8,0.2,1.2
		c0.2,0.4,0.4,0.7,0.7,0.9c0.3,0.2,0.6,0.4,1,0.4c0.3,0,0.7,0,1-0.2C68.4,22.7,68.6,22.5,68.8,22.2z"/>
	<path class="st12" d="M74.6,12.5c0.4-0.1,0.8-0.1,1.2-0.1s0.7,0.2,1,0.5s0.5,0.6,0.6,1c0.1,0.4,0.1,0.7,0,1.1
		c-0.1,0.3-0.3,0.6-0.5,0.9l0,0c0.4,0,0.8,0.1,1.1,0.4c0.3,0.2,0.6,0.6,0.7,1c0.1,0.4,0.1,0.8,0,1.2c-0.1,0.4-0.3,0.7-0.6,1
		c-0.3,0.3-0.6,0.5-1,0.6l-2.8,0.9l-2.4-7.7L74.6,12.5z M76.3,15.5c0.2-0.2,0.3-0.4,0.3-0.6s0-0.4,0-0.6c-0.1-0.2-0.2-0.4-0.3-0.5
		c-0.2-0.2-0.4-0.3-0.6-0.3c-0.2-0.1-0.5-0.1-0.7,0L73.1,14l0.8,2.4l1.8-0.6C75.9,15.8,76.1,15.6,76.3,15.5z M77.6,18.9
		c0.2-0.2,0.3-0.4,0.3-0.6c0-0.2,0-0.5,0-0.7c-0.1-0.2-0.2-0.4-0.4-0.6s-0.4-0.3-0.6-0.3c-0.2-0.1-0.5,0-0.8,0l-2,0.6l0.8,2.6l2-0.6
		C77.2,19.2,77.5,19.1,77.6,18.9z"/>
	<path class="st12" d="M81.1,19c-0.4-0.1-0.6-0.2-0.9-0.5c-0.2-0.2-0.4-0.5-0.5-0.9c-0.1-0.6,0-1.1,0.3-1.5c0.4-0.4,0.9-0.7,1.5-0.9
		c0.3-0.1,0.6-0.1,0.9-0.1c0.3,0,0.5,0,0.7,0.1l-0.1-0.3c-0.1-0.4-0.3-0.7-0.7-0.9c-0.3-0.2-0.7-0.2-1.2-0.1
		c-0.3,0.1-0.6,0.2-0.8,0.4s-0.4,0.4-0.5,0.7l-0.8-0.4c0.1-0.4,0.4-0.7,0.7-1s0.7-0.5,1.2-0.6c0.7-0.2,1.4-0.1,1.9,0.2
		c0.5,0.3,0.9,0.8,1,1.5l0.8,3.5L84,18.3l-0.2-0.8l0,0c-0.1,0.3-0.3,0.6-0.5,0.9c-0.3,0.3-0.6,0.4-1,0.5C81.8,19,81.5,19.1,81.1,19z
		 M80.3,12.2c-0.2-0.1-0.5-0.2-0.6-0.4c-0.2-0.2-0.3-0.4-0.4-0.6l0.7-0.2c0,0.2,0.1,0.3,0.3,0.4s0.3,0.1,0.5,0.1
		c0.2,0,0.3-0.2,0.4-0.3c0.1-0.2,0.1-0.3,0.1-0.5l0.7-0.2c0.1,0.3,0,0.5,0,0.7c-0.1,0.2-0.2,0.4-0.4,0.6c-0.2,0.2-0.4,0.3-0.6,0.3
		C80.8,12.3,80.6,12.3,80.3,12.2z M81.5,9.1L81,10.4l-0.8,0.2l0.3-1.3L81.5,9.1z M82.9,17.7c0.2-0.2,0.4-0.5,0.5-0.8
		c0.1-0.3,0.1-0.6,0-0.9c-0.2-0.1-0.4-0.1-0.7-0.1c-0.3,0-0.5,0-0.8,0.1c-0.5,0.1-0.9,0.3-1.1,0.6c-0.2,0.3-0.3,0.6-0.2,0.9
		c0.1,0.3,0.2,0.5,0.5,0.7s0.6,0.2,0.9,0.1C82.4,18,82.7,17.9,82.9,17.7z"/>
	<path class="st12" d="M87.1,17.5c-0.5-0.2-0.9-0.5-1.2-0.9s-0.5-0.9-0.6-1.5c-0.1-0.6-0.1-1.1,0.1-1.6c0.2-0.5,0.4-0.9,0.8-1.2
		c0.4-0.3,0.8-0.5,1.4-0.6c0.6-0.1,1.1,0,1.6,0.2c0.5,0.2,0.8,0.5,1.1,1l-0.8,0.5c-0.2-0.3-0.4-0.6-0.7-0.7c-0.3-0.1-0.6-0.2-1-0.1
		c-0.3,0.1-0.6,0.2-0.9,0.4s-0.4,0.5-0.6,0.9s-0.1,0.7-0.1,1.2c0.1,0.4,0.2,0.8,0.4,1.1c0.2,0.3,0.5,0.5,0.8,0.6
		c0.3,0.1,0.6,0.2,1,0.1c0.4-0.1,0.7-0.2,1-0.4s0.4-0.5,0.5-0.9l0.9,0.2c-0.1,0.5-0.4,0.9-0.7,1.3c-0.4,0.4-0.9,0.6-1.4,0.7
		C88,17.8,87.5,17.7,87.1,17.5z"/>
	<path class="st12" d="M93.4,13l0-0.7l0.9,0l-0.2-3.5l2.4-0.1c0.8,0,1.5,0.1,2.1,0.4c0.6,0.3,1.1,0.8,1.5,1.4
		c0.4,0.6,0.5,1.3,0.6,2.1c0,0.8-0.1,1.5-0.4,2.1c-0.3,0.6-0.7,1.1-1.3,1.5c-0.6,0.4-1.3,0.6-2.1,0.6l-2.4,0.1l-0.2-3.8L93.4,13z
		 M99,14.8c0.5-0.6,0.8-1.4,0.7-2.3c0-1-0.4-1.7-0.9-2.2c-0.6-0.5-1.3-0.8-2.3-0.7l-1.4,0.1l0.1,2.6l2-0.1l0,0.7l-2,0.1l0.1,2.9
		l1.4-0.1C97.8,15.6,98.5,15.3,99,14.8z"/>
	<path class="st12" d="M102.6,16.4c-0.3-0.2-0.6-0.4-0.7-0.7c-0.2-0.3-0.2-0.6-0.2-1c0-0.6,0.3-1.1,0.7-1.4c0.5-0.3,1-0.5,1.7-0.5
		c0.3,0,0.7,0.1,0.9,0.1c0.3,0.1,0.5,0.2,0.7,0.3l0-0.3c0-0.4-0.1-0.8-0.4-1c-0.3-0.3-0.7-0.4-1.1-0.4c-0.3,0-0.6,0.1-0.9,0.2
		s-0.5,0.3-0.7,0.6l-0.7-0.6c0.2-0.3,0.5-0.6,0.9-0.8c0.4-0.2,0.8-0.3,1.3-0.3c0.8,0,1.4,0.2,1.8,0.7c0.4,0.4,0.6,1,0.6,1.7
		l-0.1,3.6l-0.9,0l0-0.8l0,0c-0.2,0.3-0.4,0.5-0.7,0.7c-0.3,0.2-0.7,0.3-1.1,0.3C103.3,16.7,102.9,16.6,102.6,16.4z M104.7,15.6
		c0.3-0.2,0.5-0.4,0.7-0.6c0.2-0.3,0.3-0.6,0.3-0.9c-0.2-0.1-0.4-0.2-0.6-0.3c-0.3-0.1-0.5-0.1-0.8-0.1c-0.5,0-0.9,0.1-1.2,0.3
		c-0.3,0.2-0.4,0.5-0.4,0.8c0,0.3,0.1,0.6,0.3,0.8c0.2,0.2,0.5,0.3,0.9,0.3C104.1,15.8,104.4,15.8,104.7,15.6z M103.9,8.2l0.8,0
		l1.1,1.3l0,0.1l-0.9,0L104.3,9l-0.1,0l-0.6,0.6l-0.9,0l0-0.1L103.9,8.2z M105.9,8c0-0.1,0-0.2-0.1-0.3c-0.1-0.1-0.2-0.1-0.3-0.1
		c-0.1,0-0.3,0-0.4,0.1l0-0.7c0.2,0,0.3,0,0.5,0c0.3,0,0.6,0.1,0.8,0.3c0.2,0.2,0.3,0.4,0.3,0.7c0,0.2-0.1,0.4-0.2,0.6
		c-0.1,0.2-0.3,0.4-0.5,0.6l-0.4-0.4C105.7,8.3,105.9,8.1,105.9,8z"/>
	<path class="st12" d="M108.2,16.3c-0.3-0.4-0.4-1-0.4-1.7l0.4-3.6l0.9,0.1l-0.4,3.4c-0.1,0.5,0,1,0.2,1.2c0.2,0.3,0.5,0.4,0.9,0.5
		c0.3,0,0.6,0,0.9-0.2c0.3-0.1,0.5-0.4,0.6-0.6c0.2-0.3,0.3-0.5,0.3-0.9l0.3-3.2l0.9,0.1l-0.6,5.7l-0.9-0.1l0.1-0.8l0,0
		c-0.2,0.3-0.5,0.5-0.8,0.6c-0.4,0.2-0.7,0.2-1.1,0.2C109,17,108.5,16.7,108.2,16.3z"/>
	<path class="st12" d="M117.1,10.6l0.2-0.9l5.2,1.1l-0.2,0.9l-2.2-0.4l-1.4,7l-0.9-0.2l1.4-7L117.1,10.6z"/>
	<path class="st12" d="M122,18.8c-0.3-0.4-0.6-0.8-0.7-1.3c-0.1-0.5-0.1-1,0.1-1.6c0.1-0.5,0.4-1,0.7-1.4s0.7-0.7,1.2-0.8
		c0.5-0.2,1-0.2,1.5,0c0.5,0.1,1,0.4,1.3,0.7c0.3,0.3,0.5,0.8,0.6,1.2c0.1,0.5,0.1,1-0.1,1.6c0,0.1-0.1,0.2-0.1,0.3l-4.3-1.2
		c-0.1,0.4-0.1,0.8,0,1.1c0.1,0.3,0.3,0.6,0.5,0.8c0.2,0.2,0.5,0.4,0.8,0.5c0.7,0.2,1.3,0,1.9-0.6l0.7,0.6c-0.3,0.4-0.8,0.6-1.2,0.8
		s-1,0.2-1.6,0C122.8,19.4,122.4,19.2,122,18.8z M125.8,15.7c0-0.3-0.2-0.5-0.4-0.7c-0.2-0.2-0.5-0.4-0.9-0.5
		c-0.4-0.1-0.8-0.1-1.2,0.1c-0.4,0.2-0.7,0.5-0.9,0.9l3.3,0.9C125.9,16.2,125.9,16,125.8,15.7z"/>
	<path class="st12" d="M130.2,13l-2.5,7.6l-0.9-0.3l2.5-7.6L130.2,13z"/>
	<path class="st12" d="M130,21.3c-0.3-0.4-0.5-0.9-0.5-1.4c-0.1-0.5,0-1,0.2-1.6c0.2-0.5,0.5-0.9,0.9-1.3c0.4-0.4,0.8-0.6,1.3-0.7
		c0.5-0.1,1-0.1,1.5,0.1c0.5,0.2,0.9,0.5,1.2,0.9c0.3,0.4,0.5,0.8,0.5,1.3c0,0.5,0,1-0.2,1.5c0,0.1-0.1,0.2-0.1,0.3l-4.2-1.6
		c-0.1,0.4-0.2,0.8-0.1,1.1c0.1,0.3,0.2,0.6,0.4,0.9c0.2,0.2,0.5,0.4,0.7,0.5c0.7,0.3,1.3,0.1,1.9-0.4l0.6,0.7
		c-0.4,0.3-0.8,0.6-1.3,0.7c-0.5,0.1-1,0.1-1.6-0.2C130.7,21.9,130.3,21.6,130,21.3z M134.1,18.6c0-0.3-0.1-0.5-0.3-0.8
		s-0.4-0.4-0.8-0.6c-0.4-0.2-0.8-0.2-1.2,0c-0.4,0.2-0.7,0.4-1,0.8l3.2,1.2C134.1,19.1,134.1,18.8,134.1,18.6z"/>
	<path class="st12" d="M135.7,23.6c-0.3-0.4-0.4-0.9-0.5-1.4c0-0.5,0.1-1,0.3-1.6c0.2-0.5,0.6-0.9,1-1.3c0.4-0.3,0.9-0.5,1.4-0.6
		c0.5-0.1,1,0,1.5,0.3c0.6,0.3,1,0.6,1.2,1s0.4,0.9,0.3,1.4l-0.9,0c0-0.4,0-0.7-0.2-1c-0.2-0.3-0.4-0.5-0.8-0.7
		c-0.3-0.1-0.6-0.2-1-0.1s-0.7,0.2-1,0.4c-0.3,0.2-0.5,0.5-0.7,0.9c-0.2,0.4-0.3,0.8-0.2,1.1c0,0.4,0.1,0.7,0.3,1
		c0.2,0.3,0.4,0.5,0.7,0.6c0.4,0.2,0.7,0.2,1,0.2c0.3,0,0.6-0.2,0.9-0.4l0.6,0.7c-0.4,0.3-0.8,0.6-1.3,0.6c-0.5,0.1-1,0-1.6-0.3
		C136.3,24.3,135.9,24,135.7,23.6z"/>
	<path class="st12" d="M140.9,26.2c-0.3-0.5-0.4-0.9-0.4-1.5c0-0.5,0.2-1,0.4-1.5c0.3-0.5,0.6-0.9,1.1-1.2c0.4-0.3,0.9-0.4,1.4-0.5
		s1,0.1,1.5,0.4s0.8,0.6,1.1,1.1c0.3,0.5,0.4,0.9,0.4,1.5c0,0.5-0.2,1-0.4,1.5c-0.3,0.5-0.6,0.9-1.1,1.2c-0.4,0.3-0.9,0.4-1.4,0.5
		c-0.5,0-1-0.1-1.5-0.4S141.2,26.6,140.9,26.2z M143.4,26.8c0.3,0,0.7-0.1,1-0.3s0.6-0.5,0.8-0.9s0.3-0.8,0.3-1.1
		c0-0.4-0.1-0.7-0.3-1c-0.2-0.3-0.4-0.5-0.7-0.7c-0.3-0.2-0.6-0.3-1-0.2s-0.7,0.1-1,0.3s-0.6,0.5-0.8,0.9c-0.2,0.4-0.3,0.8-0.3,1.1
		c0,0.4,0.1,0.7,0.3,1c0.2,0.3,0.4,0.5,0.7,0.7C142.7,26.7,143.1,26.8,143.4,26.8z"/>
	<path class="st12" d="M149.3,24.7l-0.5,0.7l0,0c0.3-0.1,0.6-0.2,1-0.2c0.4,0,0.7,0.1,1,0.3c0.3,0.2,0.6,0.5,0.7,0.9
		c0.1,0.3,0.2,0.7,0.1,1c0.4-0.2,0.7-0.2,1.1-0.2c0.4,0,0.8,0.2,1.1,0.4c0.5,0.4,0.8,0.8,0.9,1.3c0,0.5-0.1,1.1-0.5,1.6l-2.1,3
		l-0.8-0.5l2-2.9c0.3-0.4,0.4-0.8,0.4-1.1s-0.2-0.6-0.6-0.8c-0.2-0.2-0.5-0.2-0.8-0.2s-0.6,0.1-0.8,0.2c-0.3,0.2-0.5,0.4-0.7,0.6
		l-1.8,2.7l-0.8-0.5l2-2.9c0.3-0.4,0.4-0.8,0.4-1.1c0-0.3-0.2-0.6-0.6-0.8c-0.2-0.2-0.5-0.2-0.8-0.2c-0.3,0-0.6,0.1-0.8,0.2
		c-0.3,0.2-0.5,0.4-0.7,0.6l-1.8,2.6l-0.8-0.5l3.3-4.7L149.3,24.7z"/>
	<path class="st12" d="M162,37.2l-0.5,0.6l-2.6-2.4l0.5-0.6L162,37.2z"/>
	<path class="st12" d="M162.9,43.6c-0.1-0.4-0.2-0.8-0.1-1.2c0.1-0.4,0.2-0.8,0.5-1.2l0.9,0.4c-0.3,0.4-0.4,0.8-0.4,1.3
		c0,0.5,0.1,0.9,0.4,1.2c0.3,0.3,0.7,0.5,1.1,0.6c0.4,0.1,0.8,0,1.1-0.3c0.3-0.2,0.4-0.6,0.4-0.9c0-0.4-0.1-0.8-0.4-1.4l-0.2-0.5
		c-0.2-0.6-0.3-1.1-0.3-1.6c0-0.5,0.2-0.9,0.7-1.3c0.3-0.3,0.6-0.4,1-0.5c0.4-0.1,0.8,0,1.2,0.1c0.4,0.1,0.7,0.4,1,0.7
		c0.3,0.3,0.5,0.7,0.6,1.1c0.1,0.4,0.1,0.7,0.1,1s-0.1,0.6-0.3,0.8l-0.9-0.4c0.2-0.2,0.2-0.5,0.2-0.9c0-0.3-0.1-0.7-0.4-1
		c-0.3-0.3-0.6-0.5-0.9-0.5c-0.4-0.1-0.7,0-0.9,0.3c-0.2,0.2-0.3,0.5-0.3,0.8c0,0.3,0.1,0.7,0.3,1.2l0.2,0.5
		c0.3,0.7,0.4,1.3,0.3,1.8s-0.3,1-0.8,1.4c-0.4,0.3-0.8,0.5-1.2,0.6c-0.4,0-0.8,0-1.2-0.2c-0.4-0.2-0.7-0.4-1-0.8
		C163.2,44.3,163,44,162.9,43.6z"/>
	<path class="st12" d="M166.5,47.8c-0.1-0.4,0-0.7,0.1-1c0.1-0.3,0.3-0.6,0.6-0.8c0.5-0.4,1-0.5,1.5-0.3c0.5,0.1,1,0.5,1.4,1
		c0.2,0.3,0.4,0.5,0.5,0.8c0.1,0.3,0.2,0.5,0.2,0.7l0.3-0.2c0.3-0.3,0.5-0.6,0.5-1c0-0.4-0.1-0.8-0.4-1.1c-0.2-0.2-0.4-0.4-0.7-0.6
		c-0.3-0.1-0.6-0.2-0.8-0.1l0-0.9c0.4,0,0.8,0,1.2,0.2c0.4,0.2,0.7,0.5,1,0.8c0.5,0.6,0.7,1.2,0.6,1.8c-0.1,0.6-0.4,1.1-0.9,1.5
		l-2.9,2.2l-0.5-0.7l0.7-0.5l0,0c-0.3,0-0.7,0-1-0.1c-0.4-0.1-0.7-0.4-0.9-0.7C166.7,48.5,166.6,48.2,166.5,47.8z M168.4,48.9
		c0.3,0.1,0.6,0.2,0.9,0.1c0.3,0,0.6-0.2,0.9-0.4c0-0.2-0.1-0.4-0.2-0.7s-0.2-0.5-0.4-0.7c-0.3-0.4-0.6-0.6-1-0.7
		c-0.3-0.1-0.6,0-0.9,0.2c-0.2,0.2-0.4,0.4-0.4,0.7c0,0.3,0.1,0.6,0.3,0.9C167.9,48.6,168.1,48.8,168.4,48.9z"/>
	<path class="st12" d="M170.3,52.7c0-0.5,0.1-1,0.3-1.5c0.3-0.5,0.6-0.8,1.1-1.2s1-0.5,1.5-0.5s1,0,1.5,0.3c0.5,0.2,0.9,0.6,1.2,1
		c0.3,0.5,0.5,0.9,0.5,1.5c0,0.5-0.1,1-0.3,1.5c-0.3,0.5-0.6,0.8-1.1,1.2c-0.5,0.3-1,0.5-1.5,0.5c-0.5,0.1-1,0-1.5-0.3
		c-0.5-0.2-0.9-0.6-1.2-1C170.5,53.7,170.3,53.2,170.3,52.7z M172.2,54.3c0.3,0.2,0.7,0.2,1,0.2s0.7-0.2,1.1-0.4
		c0.4-0.2,0.6-0.5,0.8-0.9c0.2-0.3,0.3-0.7,0.2-1c0-0.3-0.1-0.7-0.3-1c-0.2-0.3-0.4-0.5-0.8-0.7c-0.3-0.2-0.7-0.2-1-0.2
		c-0.4,0-0.7,0.2-1.1,0.4c-0.4,0.2-0.6,0.5-0.8,0.9c-0.2,0.3-0.3,0.7-0.2,1c0,0.3,0.1,0.7,0.3,1C171.7,53.9,171.9,54.2,172.2,54.3z"
		/>
	<path class="st12" d="M182.8,58.4c0.2,0.4,0.3,0.7,0.3,1.1c0,0.4-0.1,0.8-0.3,1.1c-0.2,0.3-0.5,0.6-0.8,0.8c-0.3,0.2-0.7,0.3-1,0.2
		s-0.7-0.2-1-0.4l0,0c0.1,0.4,0,0.8-0.2,1.2s-0.5,0.7-0.9,0.9c-0.4,0.2-0.8,0.3-1.2,0.3s-0.8-0.2-1.1-0.4s-0.6-0.5-0.8-0.9l-1.4-2.7
		l7.1-3.7L182.8,58.4z M177.1,62.4c0.2,0.1,0.4,0.2,0.7,0.2c0.2,0,0.5,0,0.7-0.2c0.2-0.1,0.4-0.3,0.5-0.5s0.2-0.4,0.2-0.7
		c0-0.2,0-0.5-0.2-0.7l-1-1.8l-2.4,1.3l1,1.9C176.7,62.1,176.8,62.3,177.1,62.4z M180.2,60.5c0.2,0.1,0.4,0.2,0.6,0.2
		c0.2,0,0.4,0,0.6-0.1c0.2-0.1,0.3-0.2,0.5-0.4c0.1-0.2,0.2-0.4,0.2-0.6c0-0.2,0-0.5-0.1-0.7l-0.9-1.7l-2.3,1.2l0.9,1.7
		C179.8,60.2,180,60.4,180.2,60.5z"/>
	<path class="st12" d="M177.6,65.9c0-0.4,0.1-0.7,0.3-1c0.2-0.3,0.5-0.5,0.8-0.6c0.6-0.2,1.1-0.2,1.6,0.1s0.9,0.7,1.1,1.4
		c0.1,0.3,0.2,0.6,0.3,0.9c0,0.3,0.1,0.5,0,0.7l0.3-0.1c0.4-0.2,0.6-0.4,0.8-0.8c0.1-0.4,0.1-0.8-0.1-1.2c-0.1-0.3-0.3-0.5-0.5-0.7
		c-0.2-0.2-0.5-0.3-0.8-0.4l0.2-0.9c0.4,0.1,0.8,0.2,1.1,0.5c0.3,0.3,0.6,0.6,0.8,1.1c0.3,0.7,0.4,1.3,0.2,1.9
		c-0.2,0.6-0.6,1-1.3,1.3l-3.3,1.4l-0.4-0.8l0.8-0.3l0,0c-0.3,0-0.6-0.2-0.9-0.4c-0.3-0.2-0.5-0.5-0.7-0.9
		C177.6,66.6,177.5,66.2,177.6,65.9z M179.2,67.4c0.3,0.2,0.5,0.3,0.9,0.3c0.3,0,0.6,0,0.9-0.1c0-0.2,0-0.4,0-0.7
		c0-0.3-0.1-0.5-0.2-0.8c-0.2-0.5-0.5-0.8-0.8-0.9s-0.6-0.2-0.9,0c-0.3,0.1-0.5,0.3-0.6,0.6s-0.1,0.6,0.1,0.9
		C178.7,67,178.9,67.2,179.2,67.4z M184.1,63.9c0-0.3,0.1-0.5,0.3-0.7c0.1-0.2,0.3-0.4,0.6-0.5l0.3,0.7c-0.2,0.1-0.3,0.2-0.4,0.4
		c-0.1,0.2-0.1,0.4,0,0.5c0.1,0.2,0.2,0.3,0.4,0.4c0.2,0.1,0.3,0.1,0.5,0l0.3,0.7c-0.2,0.1-0.5,0.1-0.7,0.1c-0.2,0-0.5-0.1-0.7-0.3
		s-0.4-0.3-0.5-0.6C184.1,64.4,184,64.2,184.1,63.9z M187.4,64.5l-1.4-0.2l-0.3-0.7l1.3,0L187.4,64.5z"/>
	<path class="st12" d="M180,71.5c0.1-0.5,0.3-0.9,0.7-1.3s0.8-0.7,1.3-0.9c0.5-0.2,1.1-0.3,1.6-0.2s1,0.3,1.4,0.6
		c0.4,0.3,0.7,0.7,0.9,1.3c0.2,0.6,0.2,1.1,0.1,1.6c-0.1,0.5-0.4,0.9-0.8,1.2l-0.6-0.7c0.3-0.2,0.5-0.5,0.5-0.9s0.1-0.7-0.1-1
		c-0.1-0.3-0.3-0.6-0.6-0.8s-0.6-0.3-1-0.4c-0.4-0.1-0.8,0-1.2,0.1s-0.7,0.4-1,0.6c-0.3,0.3-0.4,0.6-0.5,0.9s-0.1,0.7,0,1
		c0.1,0.4,0.3,0.7,0.6,0.9c0.3,0.2,0.6,0.3,1,0.3l-0.1,0.9c-0.5,0-1-0.2-1.4-0.5s-0.7-0.7-0.9-1.3C179.9,72.5,179.9,71.9,180,71.5z"
		/>
	<path class="st12" d="M185.6,76.9l0.7-0.2l0.2,0.9l3.4-0.8l0.5,2.3c0.2,0.8,0.2,1.5,0,2.2s-0.5,1.2-1.1,1.7s-1.2,0.8-1.9,1
		c-0.8,0.2-1.5,0.2-2.1,0c-0.7-0.2-1.2-0.5-1.7-1c-0.5-0.5-0.8-1.2-1-1.9l-0.5-2.3l3.7-0.9L185.6,76.9z M184.9,82.7
		c0.7,0.4,1.5,0.5,2.4,0.3c1-0.2,1.6-0.7,2-1.3c0.4-0.7,0.5-1.4,0.3-2.4l-0.3-1.4l-2.5,0.6l0.5,2l-0.7,0.2l-0.5-2l-2.8,0.7l0.3,1.4
		C183.8,81.7,184.2,82.3,184.9,82.7z"/>
	<path class="st12" d="M183.9,86.6c0.1-0.3,0.3-0.6,0.6-0.8s0.6-0.4,0.9-0.4c0.6-0.1,1.1,0.1,1.5,0.4c0.4,0.4,0.7,0.9,0.8,1.6
		c0.1,0.3,0.1,0.7,0,1c0,0.3-0.1,0.5-0.2,0.7l0.3-0.1c0.4-0.1,0.7-0.3,0.9-0.6s0.3-0.7,0.2-1.2c0-0.3-0.2-0.6-0.3-0.8
		c-0.2-0.2-0.4-0.4-0.7-0.5l0.4-0.8c0.4,0.2,0.7,0.4,0.9,0.8c0.3,0.4,0.4,0.8,0.5,1.2c0.1,0.8,0,1.4-0.3,1.9
		c-0.3,0.5-0.9,0.8-1.5,0.9l-3.6,0.6l-0.1-0.9l0.8-0.1l0,0c-0.3-0.1-0.6-0.3-0.8-0.6s-0.4-0.6-0.5-1
		C183.8,87.3,183.8,86.9,183.9,86.6z M185.1,88.5c0.2,0.2,0.5,0.4,0.8,0.5c0.3,0.1,0.6,0.2,0.9,0.1c0.1-0.2,0.2-0.4,0.2-0.7
		c0-0.3,0-0.5,0-0.8c-0.1-0.5-0.2-0.9-0.5-1.1c-0.3-0.2-0.6-0.3-0.9-0.3c-0.3,0-0.5,0.2-0.7,0.5c-0.2,0.3-0.2,0.6-0.2,0.9
		C184.8,88,184.9,88.2,185.1,88.5z M192.2,86.3l0.1,0.8l-1.1,1.3l-0.1,0l-0.1-0.9l0.5-0.7l0-0.1l-0.7-0.5l-0.1-0.9l0.1,0L192.2,86.3
		z M192.8,88.2c0.1,0,0.2-0.1,0.3-0.2c0.1-0.1,0.1-0.2,0.1-0.3c0-0.1-0.1-0.3-0.1-0.4l0.7-0.1c0.1,0.2,0.1,0.3,0.1,0.5
		c0.1,0.3,0,0.6-0.1,0.8c-0.1,0.2-0.3,0.3-0.6,0.4c-0.2,0-0.4,0-0.6-0.1c-0.2-0.1-0.4-0.2-0.7-0.4l0.4-0.4
		C192.5,88.2,192.7,88.2,192.8,88.2z"/>
	<path class="st12" d="M185.1,92c0.4-0.4,0.9-0.6,1.6-0.7l3.6-0.3l0.1,0.9l-3.5,0.3c-0.5,0-0.9,0.2-1.2,0.5c-0.2,0.3-0.3,0.6-0.3,1
		c0,0.3,0.1,0.6,0.3,0.8c0.2,0.2,0.4,0.4,0.7,0.5c0.3,0.1,0.6,0.2,0.9,0.1l3.2-0.3l0.1,0.9l-5.7,0.5l-0.1-0.9l0.8-0.1l0,0
		c-0.3-0.1-0.6-0.4-0.8-0.7s-0.4-0.7-0.4-1.1C184.6,92.9,184.7,92.4,185.1,92z"/>
	<path class="st12" d="M192.3,99.8l0.9,0l-0.1,5.4l-0.9,0l0-2.2l-7.1-0.1l0-0.9l7.1,0.1L192.3,99.8z"/>
	<path class="st12" d="M185.3,106.1c0.3-0.4,0.7-0.7,1.2-0.9s1-0.3,1.6-0.3c0.5,0,1,0.2,1.5,0.4c0.5,0.3,0.8,0.6,1.1,1
		c0.2,0.4,0.4,0.9,0.3,1.5c0,0.6-0.2,1-0.5,1.4c-0.3,0.4-0.6,0.7-1.1,0.9c-0.5,0.2-1,0.3-1.5,0.2c-0.1,0-0.2,0-0.3,0l0.3-4.5
		c-0.4,0-0.8,0.1-1.1,0.2s-0.6,0.4-0.7,0.7c-0.2,0.3-0.3,0.6-0.3,0.9c0,0.7,0.3,1.3,0.9,1.7l-0.4,0.8c-0.4-0.3-0.8-0.6-1-1.1
		c-0.2-0.4-0.3-0.9-0.3-1.5C184.8,107,185,106.5,185.3,106.1z M189,109.2c0.2-0.1,0.5-0.3,0.6-0.5c0.2-0.2,0.3-0.5,0.3-0.9
		c0-0.4-0.1-0.8-0.4-1.2c-0.3-0.3-0.6-0.6-1.1-0.7l-0.2,3.4C188.5,109.4,188.8,109.3,189,109.2z"/>
	<path class="st12" d="M192.5,113l-8-0.9l0.1-0.9l8,0.9L192.5,113z"/>
	<path class="st12" d="M184.4,114.4c0.3-0.4,0.7-0.6,1.2-0.8c0.5-0.2,1-0.2,1.6-0.1c0.5,0.1,1,0.3,1.4,0.6c0.4,0.3,0.7,0.7,0.9,1.1
		c0.2,0.5,0.3,0.9,0.2,1.5c-0.1,0.5-0.3,1-0.6,1.4c-0.3,0.4-0.7,0.6-1.2,0.8c-0.5,0.1-1,0.2-1.5,0.1c-0.1,0-0.2,0-0.3-0.1l0.7-4.4
		c-0.4,0-0.8,0-1.1,0.1c-0.3,0.1-0.6,0.3-0.8,0.6c-0.2,0.3-0.3,0.5-0.4,0.8c-0.1,0.7,0.1,1.3,0.8,1.8l-0.5,0.7
		c-0.4-0.3-0.7-0.7-0.9-1.1c-0.2-0.5-0.3-1-0.2-1.6C183.9,115.2,184.1,114.8,184.4,114.4z M187.9,117.9c0.3-0.1,0.5-0.2,0.7-0.4
		s0.3-0.5,0.4-0.9c0.1-0.4,0-0.8-0.2-1.2s-0.6-0.6-1-0.8l-0.6,3.4C187.4,118,187.6,117.9,187.9,117.9z"/>
	<path class="st12" d="M183.3,120.4c0.4-0.4,0.8-0.6,1.3-0.7s1-0.1,1.6,0c0.6,0.1,1,0.4,1.4,0.7c0.4,0.3,0.7,0.8,0.8,1.2
		c0.2,0.5,0.2,1,0,1.5c-0.1,0.6-0.4,1.1-0.8,1.4c-0.4,0.3-0.8,0.5-1.3,0.6l-0.2-0.9c0.4-0.1,0.7-0.2,0.9-0.4s0.4-0.5,0.5-0.9
		c0.1-0.3,0.1-0.6-0.1-1s-0.3-0.6-0.6-0.8c-0.3-0.2-0.6-0.4-1-0.5c-0.4-0.1-0.8-0.1-1.2,0c-0.4,0.1-0.7,0.3-0.9,0.5
		c-0.2,0.2-0.4,0.5-0.5,0.8c-0.1,0.4-0.1,0.7,0,1.1c0.1,0.3,0.3,0.6,0.6,0.8l-0.5,0.7c-0.4-0.3-0.7-0.7-0.9-1.2
		c-0.2-0.5-0.2-1-0.1-1.6C182.7,121.2,183,120.8,183.3,120.4z"/>
	<path class="st12" d="M181.9,126.1c0.4-0.3,0.8-0.6,1.4-0.7c0.5-0.1,1-0.1,1.6,0.1c0.5,0.2,1,0.4,1.4,0.8c0.4,0.4,0.6,0.8,0.7,1.3
		s0.1,1-0.1,1.5c-0.2,0.5-0.4,1-0.8,1.3c-0.4,0.3-0.8,0.6-1.4,0.7c-0.5,0.1-1,0.1-1.6-0.1s-1-0.4-1.4-0.8s-0.6-0.8-0.7-1.3
		c-0.1-0.5-0.1-1,0.1-1.5C181.2,126.9,181.5,126.5,181.9,126.1z M181.8,128.7c0.1,0.3,0.2,0.6,0.5,0.9c0.3,0.3,0.6,0.5,1,0.6
		c0.4,0.1,0.8,0.2,1.2,0.1c0.4-0.1,0.7-0.2,0.9-0.5c0.3-0.2,0.4-0.5,0.5-0.8c0.1-0.3,0.1-0.7,0-1c-0.1-0.3-0.2-0.6-0.5-0.9
		c-0.3-0.3-0.6-0.5-1-0.6c-0.4-0.1-0.8-0.2-1.2-0.1c-0.4,0.1-0.7,0.2-0.9,0.5s-0.4,0.5-0.5,0.8C181.7,128,181.7,128.4,181.8,128.7z"
		/>
	<path class="st12" d="M185.1,134.1l-0.8-0.3l0,0c0.2,0.3,0.3,0.6,0.4,1c0.1,0.4,0,0.7-0.1,1.1c-0.2,0.4-0.4,0.7-0.7,0.9
		c-0.3,0.2-0.6,0.3-1,0.3c0.2,0.3,0.4,0.7,0.4,1c0.1,0.4,0,0.8-0.2,1.2c-0.2,0.6-0.6,1-1.1,1.1c-0.5,0.1-1.1,0.1-1.7-0.2l-3.4-1.4
		l0.4-0.9l3.3,1.4c0.5,0.2,0.9,0.3,1.2,0.2s0.5-0.3,0.7-0.7c0.1-0.3,0.1-0.5,0.1-0.8s-0.2-0.5-0.4-0.7c-0.2-0.2-0.5-0.4-0.8-0.5
		l-3-1.2l0.4-0.9l3.2,1.4c0.5,0.2,0.9,0.3,1.2,0.2c0.3-0.1,0.5-0.3,0.7-0.7c0.1-0.3,0.1-0.5,0.1-0.8c-0.1-0.3-0.2-0.5-0.4-0.8
		c-0.2-0.2-0.5-0.4-0.8-0.5l-3-1.2l0.4-0.9l5.3,2.2L185.1,134.1z"/>
</g>
<g>
	<g>
		<path class="st13" d="M94.4,191.4c2.5-3.3,5.8-5.2,9.8-5.7l1.2,5.3C102.5,188.3,98.9,188.5,94.4,191.4z"/>
		<path class="st13" d="M98,190.7c4.6-0.7,8.3,0.5,10.3,4.4l-3,3.2C106.1,193.1,103.4,190.6,98,190.7z"/>
		<path class="st13" d="M91.3,193.7l2.3,4.5c0.3-5.4,7-7.9,10.9-2.6C103.1,191.2,96.9,189.4,91.3,193.7z"/>
		<path class="st13" d="M97.4,187.4c-8.3-1-0.7,11,6.6,11.4v0.2c-3.3,0-8.8-3.1-10.9-8.1c-1.1-3.5,1.5-4.4,4.4-3.5L97.4,187.4z"/>
	</g>
</g>
</svg>
