<?xml version="1.0" encoding="utf-8"?>
<!-- Generator: Adobe Illustrator 25.3.1, SVG Export Plug-In . SVG Version: 6.00 Build 0)  -->
<svg version="1.1" id="Layer_1" xmlns="http://www.w3.org/2000/svg" xmlns:xlink="http://www.w3.org/1999/xlink" x="0px" y="0px"
	 viewBox="0 0 90.1 116.9" style="enable-background:new 0 0 90.1 116.9;" xml:space="preserve">
<style type="text/css">
	.st0{fill:#00AEEF;}
	.st1{fill:#F9F9F9;}
	.st2{fill:#007DB6;}
</style>
<g>
	<path class="st0" d="M68.8,0.2v24c0,3.1-2.5,5.6-5.6,5.6h-46c-3.1,0-5.6-2.5-5.6-5.6v-24h-6C2.5,0.2,0,2.7,0,5.8v89.5
		c0,3.1,2.5,5.6,5.6,5.6h6V56.1c0-3.1,2.5-5.6,5.6-5.6h53.9c3.1,0,5.6,2.5,5.6,5.6v44.7h7.9c3.1,0,5.6-2.5,5.6-5.6V17.2
		c0-0.9-0.3-1.7-0.9-2.3L75.3,1c-0.5-0.5-1.2-0.8-2-0.8H68.8z"/>
	<path class="st1" d="M17.2,29.8h46c3.1,0,5.6-2.5,5.6-5.6v-24H11.6v24C11.6,27.3,14.1,29.8,17.2,29.8z M43.8,6.3
		c0-0.5,0.4-0.9,0.9-0.9h6.1c0.5,0,0.9,0.4,0.9,0.9v14c0,0.5-0.4,0.9-0.9,0.9h-6.1c-0.5,0-0.9-0.4-0.9-0.9V6.3z"/>
	<path class="st1" d="M71.1,50.5H17.2c-3.1,0-5.6,2.5-5.6,5.6v44.7h65.1V56.1C76.7,53,74.2,50.5,71.1,50.5z M68.6,95.4H19.7
		c-0.8,0-1.4-0.6-1.4-1.4s0.6-1.4,1.4-1.4h48.9c0.8,0,1.4,0.6,1.4,1.4S69.4,95.4,68.6,95.4z M68.6,86.9H19.7c-0.8,0-1.4-0.6-1.4-1.4
		c0-0.8,0.6-1.4,1.4-1.4h48.9c0.8,0,1.4,0.6,1.4,1.4C70,86.3,69.4,86.9,68.6,86.9z M68.6,78.4H19.7c-0.8,0-1.4-0.6-1.4-1.4
		c0-0.8,0.6-1.4,1.4-1.4h48.9c0.8,0,1.4,0.6,1.4,1.4C70,77.8,69.4,78.4,68.6,78.4z M68.6,69.9H19.7c-0.8,0-1.4-0.6-1.4-1.4
		s0.6-1.4,1.4-1.4h48.9c0.8,0,1.4,0.6,1.4,1.4S69.4,69.9,68.6,69.9z M68.6,61.4H19.7c-0.8,0-1.4-0.6-1.4-1.4c0-0.8,0.6-1.4,1.4-1.4
		h48.9c0.8,0,1.4,0.6,1.4,1.4C70,60.7,69.4,61.4,68.6,61.4z"/>
	<path class="st2" d="M44.7,21.3h6.1c0.5,0,0.9-0.4,0.9-0.9v-14c0-0.5-0.4-0.9-0.9-0.9h-6.1c-0.5,0-0.9,0.4-0.9,0.9v14
		C43.8,20.9,44.2,21.3,44.7,21.3z"/>
	<path class="st2" d="M68.6,58.5H19.7c-0.8,0-1.4,0.6-1.4,1.4c0,0.8,0.6,1.4,1.4,1.4h48.9c0.8,0,1.4-0.6,1.4-1.4
		C70,59.1,69.4,58.5,68.6,58.5z"/>
	<path class="st2" d="M68.6,67H19.7c-0.8,0-1.4,0.6-1.4,1.4s0.6,1.4,1.4,1.4h48.9c0.8,0,1.4-0.6,1.4-1.4S69.4,67,68.6,67z"/>
	<path class="st2" d="M68.6,75.5H19.7c-0.8,0-1.4,0.6-1.4,1.4c0,0.8,0.6,1.4,1.4,1.4h48.9c0.8,0,1.4-0.6,1.4-1.4
		C70,76.2,69.4,75.5,68.6,75.5z"/>
	<path class="st2" d="M68.6,84H19.7c-0.8,0-1.4,0.6-1.4,1.4c0,0.8,0.6,1.4,1.4,1.4h48.9c0.8,0,1.4-0.6,1.4-1.4
		C70,84.7,69.4,84,68.6,84z"/>
	<path class="st2" d="M68.6,92.5H19.7c-0.8,0-1.4,0.6-1.4,1.4s0.6,1.4,1.4,1.4h48.9c0.8,0,1.4-0.6,1.4-1.4S69.4,92.5,68.6,92.5z"/>
	<ellipse class="st2" cx="44.1" cy="113.2" rx="42.2" ry="3.7"/>
</g>
</svg>
