<?xml version="1.0" encoding="utf-8"?>
<!-- Generator: Adobe Illustrator 25.3.1, SVG Export Plug-In . SVG Version: 6.00 Build 0)  -->
<svg version="1.1" id="Layer_1" xmlns="http://www.w3.org/2000/svg" xmlns:xlink="http://www.w3.org/1999/xlink" x="0px" y="0px"
	 viewBox="0 0 142.8 116.9" style="enable-background:new 0 0 142.8 116.9;" xml:space="preserve">
<style type="text/css">
	.st0{fill:#007DB6;}
	.st1{fill:#00AEEF;}
	.st2{fill:#FFFFFF;}
	.st3{fill:#6CDCFF;}
</style>
<ellipse class="st0" cx="43.2" cy="113.2" rx="42.2" ry="3.7"/>
<g>
	<g>
		<circle class="st0" cx="114.4" cy="71.4" r="9.5"/>
		<polygon class="st1" points="126.7,36.4 102.8,36.4 104.9,56.3 122.2,56.7 		"/>
		<path class="st0" d="M127.4,36.4L127.4,36.4c8.5,0,15.4,6.9,15.4,15.4V70H112V51.8C112,43.3,118.9,36.4,127.4,36.4z"/>
	</g>
	<path class="st2" d="M94.2,100.8H77.3c-6.1,0-11.1-4.9-11.1-11.1v0c0-6.1,4.9-11.1,11.1-11.1h24.5v14.5
		C101.8,97.4,98.4,100.8,94.2,100.8z"/>
	<path class="st2" d="M74.1,100.8H7.1c-4,0-7.2-3.2-7.2-7.2V7.6c0-4,3.2-7.2,7.2-7.2h66.9c4,0,7.2,3.2,7.2,7.2v86.1
		C81.3,97.6,78,100.8,74.1,100.8z"/>
	<path class="st1" d="M96.6,100.8L96.6,100.8c-8.5,0-15.4-6.9-15.4-15.4v-49H112v49C112,93.9,105.1,100.8,96.6,100.8z"/>
	<rect x="11.2" y="21.2" class="st1" width="20.7" height="9.1"/>
	<rect x="11.2" y="36.3" class="st1" width="51.9" height="9.1"/>
	<rect x="11.2" y="56.3" class="st1" width="20.7" height="9.1"/>
	<rect x="11.2" y="71.4" class="st1" width="51.9" height="9.1"/>
	<circle class="st0" cx="102.8" cy="20.3" r="9.5"/>
	<circle class="st3" cx="111.3" cy="71.4" r="9.5"/>
	<circle class="st1" cx="98.3" cy="20.3" r="9.5"/>
</g>
</svg>
