<?xml version="1.0" encoding="utf-8"?>
<!-- Generator: Adobe Illustrator 25.3.1, SVG Export Plug-In . SVG Version: 6.00 Build 0)  -->
<svg version="1.1" id="Layer_1" xmlns="http://www.w3.org/2000/svg" xmlns:xlink="http://www.w3.org/1999/xlink" x="0px" y="0px"
	 viewBox="0 0 85.6 105.7" style="enable-background:new 0 0 85.6 105.7;" xml:space="preserve">
<style type="text/css">
	.st0{fill:#007DB6;}
	.st1{fill:#00AEEF;}
</style>
<ellipse class="st0" cx="43.2" cy="102" rx="42.2" ry="3.7"/>
<path class="st1" d="M85.8,0.5c-0.3,1.7-0.7,3.4-1,5.1c-1.9,10.5-3.8,21-5.6,31.6c-1.8,10.2-3.6,20.3-5.4,30.5
	c-0.4,2.5-0.9,4.9-1.3,7.5c-3.3-1.2-6.4-2.4-9.6-3.6c-3-1.1-6.1-2.2-9.1-3.4c-0.3-0.1-0.5-0.2-0.7-0.1c-0.2,0.1-0.3,0.2-0.5,0.4
	c-4.7,5.5-9.4,11-14.1,16.4c-0.2,0.3-0.4,0.5-0.8,0.9c0-0.5,0-0.8,0-1.1c0-7.2,0-14.4,0-21.6c0-0.7,0.2-1.2,0.6-1.7
	C48.2,47.7,58.4,34,68.6,20.3c0.2-0.2,0.4-0.5,0.5-0.8c-0.2,0.1-0.4,0.3-0.5,0.4C55,32.5,41.5,45.2,28,57.9
	c-0.4,0.3-0.6,0.6-1.2,0.3C18,55,9.2,51.7,0.5,48.5c-0.1,0-0.2-0.1-0.5-0.2C28.7,32.1,57.2,16.1,85.8,0C85.8,0.2,85.8,0.3,85.8,0.5z
	"/>
<polygon class="st0" points="37.6,62.3 52.9,68.1 37.5,85.8 "/>
</svg>
