<svg width="25" height="24" viewBox="0 0 25 24" fill="none" xmlns="http://www.w3.org/2000/svg">
<path fill-rule="evenodd" clip-rule="evenodd" d="M22.3614 10.9326C22.2191 11.6604 21.9702 12.3591 21.6281 13.0176C21.7083 13.3387 21.75 13.6675 21.75 14C21.75 14.8027 21.5171 15.5683 21.0906 16.2592C20.9218 16.5327 20.8729 16.865 20.8535 17.1101C20.832 17.383 20.839 17.6868 20.8593 17.9854C20.891 18.4533 20.959 18.9564 21.0296 19.3942C20.5492 19.2473 19.9821 19.0862 19.4511 18.9664C19.1201 18.8917 18.7872 18.8294 18.4897 18.7987C18.2221 18.7711 17.8751 18.7554 17.5777 18.8516C16.7855 19.1076 15.9155 19.25 15 19.25C13.702 19.25 12.5192 18.9723 11.519 18.5C11.5127 18.5 11.5063 18.5 11.5 18.5C10.4571 18.5 9.448 18.3812 8.49194 18.1593C10.0299 19.7603 12.4232 20.75 15 20.75C16.0706 20.75 17.0964 20.5836 18.039 20.2788C18.0328 20.2809 18.0339 20.2808 18.0436 20.2801C18.0697 20.2784 18.1579 20.2724 18.3356 20.2908C18.55 20.3129 18.8187 20.3614 19.121 20.4296C19.7236 20.5656 20.3971 20.7652 20.9184 20.9307C21.8371 21.2223 22.7305 20.4191 22.5661 19.4851C22.4809 19.0013 22.3912 18.4048 22.3558 17.8837C22.338 17.6221 22.3354 17.399 22.3489 17.2282C22.358 17.1124 22.3723 17.0545 22.377 17.0354C22.378 17.0314 22.3785 17.0291 22.3786 17.0283C22.9325 16.1239 23.25 15.0947 23.25 14C23.25 12.8786 22.927 11.841 22.3614 10.9326Z" fill="#666666"/>
<path fill-rule="evenodd" clip-rule="evenodd" d="M5.94525 5.49957C4.54973 6.56673 3.75007 7.98783 3.75007 9.5C3.75007 10.2518 3.94605 10.9736 4.30997 11.6409C4.41719 11.8375 4.45027 12.0461 4.46241 12.1994C4.47546 12.3641 4.4692 12.5377 4.45397 12.706C4.42349 13.0429 4.35005 13.4306 4.25968 13.8201C4.11596 14.4396 3.91653 15.1176 3.73125 15.7024C4.37038 15.4612 5.13328 15.1904 5.84289 14.9834C6.28054 14.8557 6.71589 14.7469 7.09863 14.6864C7.44004 14.6324 7.88157 14.5905 8.24529 14.7164C9.23237 15.0579 10.3343 15.25 11.5001 15.25C13.6972 15.25 15.6587 14.5681 17.0549 13.5004C18.4504 12.4333 19.2501 11.0122 19.2501 9.5C19.2501 7.98784 18.4504 6.56673 17.0549 5.49957C15.6587 4.43188 13.6972 3.75 11.5001 3.75C9.30289 3.75 7.34146 4.43188 5.94525 5.49957ZM5.03407 4.30804C6.71426 3.02319 9.00283 2.25 11.5001 2.25C13.9973 2.25 16.2859 3.02319 17.9661 4.30804C19.6469 5.59341 20.7501 7.42231 20.7501 9.5C20.7501 11.5777 19.6469 13.4066 17.9661 14.692C16.2859 15.9768 13.9973 16.75 11.5001 16.75C10.1704 16.75 8.9025 16.531 7.75485 16.1339C7.75984 16.1356 7.75779 16.1355 7.74749 16.135C7.71353 16.1334 7.58984 16.1273 7.3329 16.168C7.03938 16.2144 6.67231 16.3039 6.26299 16.4233C5.44715 16.6613 4.53473 16.9968 3.84334 17.2659C2.84608 17.654 1.82817 16.694 2.16404 15.6741C2.37797 15.0246 2.63211 14.1983 2.79849 13.4811C2.88214 13.1206 2.93854 12.8088 2.96008 12.5708C2.97086 12.4517 2.97115 12.369 2.9671 12.3178C2.96687 12.3149 2.96663 12.3122 2.96639 12.3097C2.50761 11.4507 2.25007 10.5008 2.25007 9.5C2.25007 7.42231 3.35319 5.59341 5.03407 4.30804ZM2.96296 12.2847C2.96299 12.2847 2.96326 12.2858 2.96368 12.2882C2.96314 12.2859 2.96293 12.2847 2.96296 12.2847Z" fill="#666666"/>
</svg>
