<svg width="22" height="22" viewBox="0 0 22 22" fill="none" xmlns="http://www.w3.org/2000/svg">
<path d="M8.15559 19.7714V16.7047C8.15557 15.9246 8.7915 15.2908 9.57938 15.2856H12.4655C13.2571 15.2856 13.8989 15.9209 13.8989 16.7047V19.7809C13.8987 20.4432 14.4327 20.9845 15.1014 21H17.0255C18.9435 21 20.4984 19.4607 20.4984 17.5618V8.83784C20.4882 8.09083 20.1339 7.38935 19.5364 6.93303L12.9561 1.6853C11.8033 0.771567 10.1646 0.771567 9.01178 1.6853L2.4604 6.94256C1.86063 7.39702 1.50576 8.09967 1.49837 8.84736V17.5618C1.49837 19.4607 3.05325 21 4.97128 21H6.89533C7.58072 21 8.13634 20.4499 8.13634 19.7714" stroke="#127EB3" stroke-width="1.5" stroke-linecap="round" stroke-linejoin="round"/>
</svg>
