<svg width="25" height="24" viewBox="0 0 25 24" fill="none" xmlns="http://www.w3.org/2000/svg">
<path fill-rule="evenodd" clip-rule="evenodd" d="M17.7484 6.5C17.7484 3.60051 15.3979 1.25 12.4984 1.25C9.59888 1.25 7.24838 3.60051 7.24838 6.5V6.6C7.24838 7.01421 7.58416 7.35 7.99838 7.35C8.41259 7.35 8.74838 7.01421 8.74838 6.6V6.5C8.74838 4.42893 10.4273 2.75 12.4984 2.75C14.5695 2.75 16.2484 4.42893 16.2484 6.5V9C16.2484 9.08766 16.2634 9.17181 16.2911 9.25H8.29838H8.26628C7.45344 9.24999 6.79782 9.24999 6.26691 9.29336C5.72028 9.33803 5.24014 9.43238 4.79592 9.65873C4.09031 10.0183 3.51663 10.5919 3.15711 11.2975C2.93077 11.7418 2.83641 12.2219 2.79174 12.7685C2.74837 13.2994 2.74837 13.955 2.74838 14.7679V14.8V17.2V17.2321C2.74837 18.045 2.74837 18.7006 2.79174 19.2315C2.83641 19.7781 2.93077 20.2582 3.15711 20.7025C3.51663 21.4081 4.09031 21.9818 4.79592 22.3413C5.24014 22.5676 5.72028 22.662 6.26691 22.7066C6.79782 22.75 7.45343 22.75 8.26626 22.75H8.29838H16.6984H16.7305C17.5434 22.75 18.199 22.75 18.7299 22.7066C19.2765 22.662 19.7566 22.5676 20.2009 22.3413C20.9065 21.9818 21.4801 21.4081 21.8397 20.7025C22.066 20.2582 22.1604 19.7781 22.205 19.2315C22.2484 18.7006 22.2484 18.045 22.2484 17.2321V17.2V14.8V14.7679C22.2484 13.955 22.2484 13.2994 22.205 12.7685C22.1604 12.2219 22.066 11.7418 21.8397 11.2975C21.4801 10.5919 20.9065 10.0183 20.2009 9.65873C19.7566 9.43238 19.2765 9.33803 18.7299 9.29336C18.4298 9.26885 18.09 9.25819 17.7045 9.25356C17.7329 9.17436 17.7484 9.08899 17.7484 9V6.5ZM6.38906 10.7884C5.93519 10.8255 5.67442 10.8946 5.4769 10.9952C5.05354 11.211 4.70933 11.5552 4.49362 11.9785C4.39298 12.176 4.32385 12.4368 4.28676 12.8907C4.24896 13.3533 4.24838 13.9475 4.24838 14.8V17.2C4.24838 18.0525 4.24896 18.6467 4.28676 19.1093C4.32385 19.5632 4.39298 19.824 4.49362 20.0215C4.70933 20.4448 5.05354 20.789 5.4769 21.0048C5.67442 21.1054 5.93519 21.1745 6.38906 21.2116C6.85169 21.2494 7.44593 21.25 8.29838 21.25H16.6984C17.5509 21.25 18.1451 21.2494 18.6077 21.2116C19.0616 21.1745 19.3224 21.1054 19.5199 21.0048C19.9432 20.789 20.2874 20.4448 20.5032 20.0215C20.6038 19.824 20.6729 19.5632 20.71 19.1093C20.7478 18.6467 20.7484 18.0525 20.7484 17.2V14.8C20.7484 13.9475 20.7478 13.3533 20.71 12.8907C20.6729 12.4368 20.6038 12.176 20.5032 11.9785C20.2874 11.5552 19.9432 11.211 19.5199 10.9952C19.3224 10.8946 19.0616 10.8255 18.6077 10.7884C18.1451 10.7506 17.5509 10.75 16.6984 10.75H8.29838C7.44593 10.75 6.85169 10.7506 6.38906 10.7884ZM13.4984 16.7324C14.0962 16.3866 14.4984 15.7403 14.4984 15C14.4984 13.8954 13.603 13 12.4984 13C11.3938 13 10.4984 13.8954 10.4984 15C10.4984 15.7403 10.9006 16.3866 11.4984 16.7324V18.5C11.4984 19.0523 11.9461 19.5 12.4984 19.5C13.0507 19.5 13.4984 19.0523 13.4984 18.5V16.7324Z" fill="#127EB3"/>
</svg>
