<svg width="12" height="6" viewBox="0 0 12 6" fill="none" xmlns="http://www.w3.org/2000/svg">
<path d="M9.14438 0.5C9.05185 0.5 8.96251 0.533708 8.89551 0.589888C8.75831 0.710674 8.75831 0.907303 8.89551 1.02809L10.7939 2.69101H0.35097C0.156341 2.69101 0 2.82865 0 3C0 3.17135 0.156341 3.30899 0.35097 3.30899H10.7971L8.8987 4.97191C8.83169 5.0309 8.7966 5.10674 8.7966 5.19101C8.7966 5.27247 8.83169 5.35112 8.8987 5.41011C8.9657 5.4691 9.05185 5.5 9.14757 5.5C9.2401 5.5 9.32943 5.4691 9.39644 5.41011L11.8979 3.2191C11.9649 3.16011 12 3.08146 12 3C12 2.91854 11.9649 2.83989 11.8979 2.7809L9.39644 0.589888C9.32624 0.530899 9.2401 0.5 9.14438 0.5Z" fill="#666666"/>
</svg>
