<svg width="24" height="24" viewBox="0 0 24 24" fill="none" xmlns="http://www.w3.org/2000/svg">
<g clip-path="url(#clip0)">
<path d="M12 0C11.724 0 11.5 0.224016 11.5 0.500016V23.5C11.5 23.776 11.724 24 12 24C12.276 24 12.5 23.776 12.5 23.5V0.500016C12.5 0.224016 12.276 0 12 0Z" fill="#007DB6"/>
<path d="M12 2C8.416 2 5.5 4.24302 5.5 7.00002C5.5 8.903 6.868 10.615 9.07098 11.468C9.13098 11.491 9.19098 11.502 9.25197 11.502C9.45198 11.502 9.64197 11.381 9.71795 11.182C9.81897 10.925 9.69095 10.636 9.43295 10.536C7.62395 9.83497 6.49994 8.48 6.49994 6.99997C6.50003 4.79398 8.968 2.99998 12 2.99998C15.032 2.99998 17.5 4.79398 17.5 6.99997C17.5 7.27597 17.724 7.49998 18 7.49998C18.276 7.49998 18.5 7.27597 18.5 6.99997C18.5 4.24297 15.584 2 12 2Z" fill="#007DB6"/>
<path d="M14.928 12.5331C14.671 12.4321 14.382 12.5601 14.282 12.8181C14.181 13.0751 14.309 13.3641 14.567 13.4641C16.376 14.1651 17.5 15.5201 17.5 17.0001C17.5 19.2061 15.032 21.0001 12 21.0001C8.968 21.0001 6.50003 19.2061 6.50003 17.0001C6.50003 16.7241 6.27602 16.5001 6.00002 16.5001C5.72402 16.5001 5.5 16.7241 5.5 17.0001C5.5 19.7571 8.416 22.0001 12 22.0001C15.584 22.0001 18.5 19.7571 18.5 17.0001C18.5 15.0971 17.132 13.3851 14.928 12.5331Z" fill="#007DB6"/>
<path d="M14.934 12.5359C13.471 11.9459 12.777 11.7169 12.044 11.4749C11.393 11.2598 10.7201 11.0369 9.43305 10.5368C9.17707 10.4339 8.88705 10.5638 8.78604 10.8209C8.68502 11.0779 8.81304 11.3678 9.07005 11.4679C10.382 11.9779 11.0681 12.2039 11.7311 12.4229C12.449 12.6599 13.127 12.8839 14.561 13.4618C14.622 13.4858 14.685 13.4978 14.748 13.4978C14.946 13.4978 15.133 13.3799 15.211 13.1858C15.315 12.9308 15.191 12.6398 14.934 12.5359Z" fill="#007DB6"/>
</g>
<defs>
<clipPath id="clip0">
<rect width="24" height="24" fill="white"/>
</clipPath>
</defs>
</svg>
