<svg width="48" height="48" viewBox="0 0 48 48" fill="none" xmlns="http://www.w3.org/2000/svg">
<path d="M22.9 20.7999C23.2 21.0999 23.6 21.2 24 21.2C24.4 21.2 24.8 21.0999 25.1 20.7999L33.2 12.7C33.5 12.4 33.6 12 33.6 11.6C33.6 11.2 33.4 10.8 33.2 10.5L25.1 2.39995C24.5 1.79995 23.6 1.79995 23 2.39995L14.9 10.5C14.6 10.8 14.5 11.2 14.5 11.6C14.5 12 14.7 12.4 14.9 12.7L22.9 20.7999Z" fill="#007BFC"/>
<path d="M45.6001 22.8999L37.5001 14.7999C36.9001 14.1999 36.0001 14.1999 35.4001 14.7999L27.3001 22.8999C26.7001 23.4999 26.7001 24.3999 27.3001 24.9999L35.4001 33.0999C35.7001 33.3999 36.1001 33.4999 36.5001 33.4999C36.9001 33.4999 37.3001 33.3999 37.6001 33.0999L45.7001 24.9999C46.1001 24.4999 46.1001 23.4999 45.6001 22.8999Z" fill="#007BFC"/>
<path d="M25.1 27.2C24.5 26.6 23.6 26.6 23 27.2L14.9 35.3C14.6 35.6 14.5 36 14.5 36.4C14.5 36.8 14.7 37.2 14.9 37.5L23 45.6C23.3 45.9 23.7 46 24.1 46C24.5 46 24.9 45.9 25.2 45.6L33.3 37.5C33.6 37.2 33.7 36.8 33.7 36.4C33.7 36 33.5 35.6 33.3 35.3L25.1 27.2Z" fill="#007BFC"/>
<path d="M11.6 33.6C12 33.6 12.4 33.5 12.7 33.2L20.8 25.1C21.4 24.5 21.4 23.6 20.8 23L12.7 14.9C12.1 14.3 11.2 14.3 10.6 14.9L2.50005 23C1.90005 23.6 1.90005 24.5 2.50005 25.1L10.6 33.2C10.9 33.5 11.2 33.6 11.6 33.6Z" fill="#007BFC"/>
<path d="M39.4 12.6C39.7 12.9 40.1 13 40.5 13C40.7 13 40.9 13 41.1 12.9C41.7 12.7 42 12.1 42 11.5V7.5C42 6.7 41.3 6 40.5 6H36.5C35.9 6 35.3 6.4 35.1 6.9C34.9 7.4 35 8.1 35.4 8.6L39.4 12.6Z" fill="#007BFC"/>
<path d="M6.9 12.9C7.1 13 7.3 13 7.5 13C7.9 13 8.3 12.8 8.6 12.6L12.6 8.6C13 8.2 13.2 7.5 12.9 7C12.6 6.5 12.1 6 11.5 6H7.5C6.7 6 6 6.7 6 7.5V11.5C6 12.1 6.4 12.7 6.9 12.9Z" fill="#007BFC"/>
<path d="M41.1001 35.1C40.5001 34.9 39.9001 35 39.5001 35.4L35.5001 39.4C35.1001 39.8 34.9001 40.5 35.2001 41C35.5001 41.5 36.0001 41.9 36.6001 41.9H40.6001C41.4001 41.9 42.1001 41.2 42.1001 40.4V36.4C42.0001 35.9 41.6001 35.3 41.1001 35.1Z" fill="#007BFC"/>
<path d="M8.6 35.4C8.2 35 7.5 34.8 7 35.1C6.4 35.3 6 35.9 6 36.5V40.5C6 41.3 6.7 42 7.5 42H11.5C12.1 42 12.7 41.6 12.9 41.1C13.1 40.6 13 39.9 12.6 39.5L8.6 35.4Z" fill="#007BFC"/>
</svg>
