<svg width="48" height="50" viewBox="0 0 48 50" fill="none" xmlns="http://www.w3.org/2000/svg">
<path d="M23.6999 13.6C23.9999 14.2 24.6999 14.5 25.3999 14.3C26.2999 14.1 27.1999 14 27.9999 14C32.8999 14 37.1999 17.3 38.5999 21.9C38.7999 22.5 39.3999 23 39.9999 23H46.1999C46.5999 23 47.0999 22.8 47.3999 22.5C47.6999 22.2 47.7999 21.7 47.6999 21.3C47.0999 18 45.5999 14.9 43.4999 12.3C43.0999 11.9 42.4999 11.7 41.9999 11.8C41.2999 11.9 40.5999 12 39.9999 12C36.4999 12 33.3999 9.7 32.2999 6.3C32.0999 5.7 31.6999 5.3 31.0999 5.3C29.9999 5.1 28.9999 5 27.9999 5C25.7999 5 23.5999 5.4 21.4999 6.1C20.9999 6.3 20.6999 6.6 20.4999 7C20.2999 7.4 20.3999 7.9 20.5999 8.3L23.6999 13.6Z" fill="#007BFC"/>
<path d="M46.1999 27H39.9999C39.2999 27 38.6999 27.4 38.5999 28.1C37.1999 32.7 32.8999 36 27.9999 36C27.1999 36 26.2999 35.9 25.3999 35.7C24.7999 35.5 24.0999 35.8 23.6999 36.4L20.5999 41.7C20.3999 42.1 20.2999 42.6 20.4999 43C20.6999 43.4 20.9999 43.7 21.3999 43.9C23.4999 44.6 25.6999 45 27.8999 45C28.8999 45 29.8999 44.9 30.9999 44.7C31.5999 44.6 31.9999 44.2 32.1999 43.7C33.1999 40.4 36.3999 38 39.8999 38C40.4999 38 41.1999 38.1 41.7999 38.2C42.3999 38.3 42.8999 38.1 43.2999 37.7C45.3999 35.1 46.8999 32 47.4999 28.7C47.5999 28.3 47.4999 27.8 47.1999 27.5C46.8999 27.2 46.5999 27 46.1999 27Z" fill="#007BFC"/>
<path d="M20.1 32.6001C18.1 30.5001 17 27.8001 17 25.0001C17 22.2001 18.1 19.5001 20.1 17.4001C20.6 16.9001 20.6 16.2001 20.3 15.6001L17.2 10.3001C17 9.90008 16.6 9.60009 16.1 9.60009C15.7 9.50009 15.2 9.70008 14.9 9.90008C12.4 12.0001 10.5 14.8001 9.29995 17.8001C9.09995 18.4001 9.19995 19.0001 9.59995 19.4001C11.1 20.9001 11.9 22.9001 11.9 25.0001C11.9 27.1001 11.1 29.1001 9.59995 30.6001C9.19995 31.0001 9.09995 31.6001 9.29995 32.2001C10.5 35.2001 12.4 37.9001 14.9 40.1001C15.2 40.3001 15.5 40.5001 15.9 40.5001C16 40.5001 16.1 40.5001 16.1 40.5001C16.5 40.4001 16.9 40.2001 17.2 39.8001L20.3 34.5001C20.6 33.8001 20.5 33.1001 20.1 32.6001Z" fill="#007BFC"/>
<path d="M4 29C6.20914 29 8 27.2091 8 25C8 22.7909 6.20914 21 4 21C1.79086 21 0 22.7909 0 25C0 27.2091 1.79086 29 4 29Z" fill="#007BFC"/>
<path d="M40 50C42.2091 50 44 48.2091 44 46C44 43.7909 42.2091 42 40 42C37.7909 42 36 43.7909 36 46C36 48.2091 37.7909 50 40 50Z" fill="#007BFC"/>
<path d="M40 8C42.2091 8 44 6.20914 44 4C44 1.79086 42.2091 0 40 0C37.7909 0 36 1.79086 36 4C36 6.20914 37.7909 8 40 8Z" fill="#007BFC"/>
</svg>
