<svg width="470" height="470" viewBox="0 0 470 470" fill="none" xmlns="http://www.w3.org/2000/svg">
<g clip-path="url(#clip0)">
<path d="M437.337 384.007H362.67C315.618 384.007 277.337 345.726 277.337 298.674C277.337 251.622 315.618 213.341 362.67 213.341H437.337C443.233 213.341 448.004 208.57 448.004 202.674V170.674C448.004 148.306 430.654 130.115 408.733 128.351L347.473 21.3511C341.796 11.4551 332.629 4.38206 321.66 1.44506C310.743 -1.47194 299.327 0.0600572 289.556 5.74706L79.5529 128.007H42.6699C19.1389 128.007 0.00292969 147.142 0.00292969 170.674V426.674C0.00292969 450.205 19.1379 469.341 42.6699 469.341H405.337C428.868 469.341 448.004 450.206 448.004 426.674V394.674C448.004 388.778 443.233 384.007 437.337 384.007ZM360.702 87.4111L383.944 128.007H290.973L360.702 87.4111ZM121.953 128.007L300.295 24.1841C305.118 21.3611 310.753 20.6111 316.139 22.0491C321.587 23.5071 326.129 27.0281 328.952 31.9551L328.974 31.9941L164.064 128.007H121.953Z" fill="#007DB6"/>
<path d="M437.337 234.674H362.67C327.378 234.674 298.67 263.382 298.67 298.674C298.67 333.966 327.378 362.674 362.67 362.674H437.337C454.983 362.674 469.337 348.32 469.337 330.674V266.674C469.337 249.028 454.983 234.674 437.337 234.674ZM362.67 320.007C350.91 320.007 341.337 310.434 341.337 298.674C341.337 286.914 350.91 277.341 362.67 277.341C374.43 277.341 384.003 286.914 384.003 298.674C384.004 310.434 374.431 320.007 362.67 320.007Z" fill="#007DB6"/>
</g>
<defs>
<clipPath id="clip0">
<rect width="469.341" height="469.341" fill="white"/>
</clipPath>
</defs>
</svg>
