<svg width="512" height="513" viewBox="0 0 512 513" fill="none" xmlns="http://www.w3.org/2000/svg">
<g clip-path="url(#clip0)">
<path d="M432 145.671C430.096 145.671 428.197 145.739 426.306 145.874C420.606 127.697 409.893 111.298 395.283 98.6835C375.644 81.7265 350.213 72.7795 324.197 73.7415C298.699 29.0305 251.03 0.670532 200 0.670532C135.898 0.670532 79.175 44.7275 62.147 106.534C25.254 122.934 1 159.775 1 200.671C1 240.545 23.775 275.197 57 292.307V254.671C57 229.858 77.187 209.671 102 209.671H410C434.814 209.671 455 229.858 455 254.671V300.24C487.376 290.367 511 260.234 511 224.671C511 181.11 475.56 145.671 432 145.671Z" fill="#007DB6"/>
<path d="M410 239.671H102C93.716 239.671 87 246.387 87 254.671V360.615H425V254.671C425 246.387 418.283 239.671 410 239.671ZM215.615 316.671H136C127.716 316.671 121 309.955 121 301.671C121 293.387 127.716 286.671 136 286.671H215.615C223.898 286.671 230.615 293.387 230.615 301.671C230.615 309.955 223.898 316.671 215.615 316.671ZM312 316.527C303.716 316.527 297 309.811 297 301.527C297 293.243 303.716 286.527 312 286.527C320.283 286.527 327 293.243 327 301.527C327 309.811 320.283 316.527 312 316.527ZM376 316.527C367.716 316.527 361 309.811 361 301.527C361 293.243 367.716 286.527 376 286.527C384.283 286.527 391 293.243 391 301.527C391 309.811 384.283 316.527 376 316.527Z" fill="#007DB6"/>
<path d="M87 497.671C87 505.954 93.716 512.671 102 512.671H410C418.283 512.671 425 505.954 425 497.671V390.615H87V497.671ZM376 432.671C384.283 432.671 391 439.387 391 447.671C391 455.954 384.283 462.671 376 462.671C367.716 462.671 361 455.954 361 447.671C361 439.387 367.716 432.671 376 432.671ZM312 432.671C320.283 432.671 327 439.387 327 447.671C327 455.954 320.283 462.671 312 462.671C303.716 462.671 297 455.954 297 447.671C297 439.387 303.716 432.671 312 432.671ZM136 432.671H215.615C223.898 432.671 230.615 439.387 230.615 447.671C230.615 455.954 223.898 462.671 215.615 462.671H136C127.716 462.671 121 455.954 121 447.671C121 439.387 127.716 432.671 136 432.671Z" fill="#007DB6"/>
</g>
<defs>
<clipPath id="clip0">
<rect width="512" height="512" fill="white" transform="translate(0 0.670532)"/>
</clipPath>
</defs>
</svg>
