<svg width="513" height="513" viewBox="0 0 513 513" fill="none" xmlns="http://www.w3.org/2000/svg">
<path d="M64.527 64.6705H80.527V80.6705H64.527V64.6705Z" fill="#007DB6"/>
<path d="M64.527 320.671H80.527V336.671H64.527V320.671Z" fill="#007DB6"/>
<path d="M32.527 296.671V360.671C32.527 362.792 33.3698 364.827 34.8701 366.327C36.3704 367.828 38.4052 368.671 40.527 368.671H192.527V288.671H40.527C38.4052 288.671 36.3704 289.513 34.8701 291.014C33.3698 292.514 32.527 294.549 32.527 296.671ZM112.527 312.671C112.527 310.549 113.37 308.514 114.87 307.014C116.37 305.513 118.405 304.671 120.527 304.671H152.527C154.649 304.671 156.684 305.513 158.184 307.014C159.684 308.514 160.527 310.549 160.527 312.671V344.671C160.527 346.792 159.684 348.827 158.184 350.327C156.684 351.828 154.649 352.671 152.527 352.671H120.527C118.405 352.671 116.37 351.828 114.87 350.327C113.37 348.827 112.527 346.792 112.527 344.671V312.671ZM48.527 312.671C48.527 310.549 49.3698 308.514 50.8701 307.014C52.3704 305.513 54.4052 304.671 56.527 304.671H88.527C90.6487 304.671 92.6835 305.513 94.1838 307.014C95.6841 308.514 96.527 310.549 96.527 312.671V344.671C96.527 346.792 95.6841 348.827 94.1838 350.327C92.6835 351.828 90.6487 352.671 88.527 352.671H56.527C54.4052 352.671 52.3704 351.828 50.8701 350.327C49.3698 348.827 48.527 346.792 48.527 344.671V312.671Z" fill="#007DB6"/>
<path d="M112.527 256.671H192.527V272.671H112.527V256.671Z" fill="#007DB6"/>
<path d="M128.527 320.671H144.527V336.671H128.527V320.671Z" fill="#007DB6"/>
<path d="M64.527 256.671H96.527V272.671H64.527V256.671Z" fill="#007DB6"/>
<path d="M272.527 128.671H304.527V144.671H272.527V128.671Z" fill="#007DB6"/>
<path d="M336.527 104.671V40.6705C336.527 38.5488 335.684 36.514 334.184 35.0137C332.684 33.5134 330.649 32.6705 328.527 32.6705H40.527C38.4052 32.6705 36.3704 33.5134 34.8701 35.0137C33.3698 36.514 32.527 38.5488 32.527 40.6705V104.671C32.527 106.792 33.3698 108.827 34.8701 110.327C36.3704 111.828 38.4052 112.671 40.527 112.671H328.527C330.649 112.671 332.684 111.828 334.184 110.327C335.684 108.827 336.527 106.792 336.527 104.671ZM96.527 88.6705C96.527 90.7923 95.6841 92.8271 94.1838 94.3274C92.6835 95.8277 90.6487 96.6705 88.527 96.6705H56.527C54.4052 96.6705 52.3704 95.8277 50.8701 94.3274C49.3698 92.8271 48.527 90.7923 48.527 88.6705V56.6705C48.527 54.5488 49.3698 52.514 50.8701 51.0137C52.3704 49.5134 54.4052 48.6705 56.527 48.6705H88.527C90.6487 48.6705 92.6835 49.5134 94.1838 51.0137C95.6841 52.514 96.527 54.5488 96.527 56.6705V88.6705ZM160.527 88.6705C160.527 90.7923 159.684 92.8271 158.184 94.3274C156.684 95.8277 154.649 96.6705 152.527 96.6705H120.527C118.405 96.6705 116.37 95.8277 114.87 94.3274C113.37 92.8271 112.527 90.7923 112.527 88.6705V56.6705C112.527 54.5488 113.37 52.514 114.87 51.0137C116.37 49.5134 118.405 48.6705 120.527 48.6705H152.527C154.649 48.6705 156.684 49.5134 158.184 51.0137C159.684 52.514 160.527 54.5488 160.527 56.6705V88.6705ZM288.527 96.6705H176.527V80.6705H288.527V96.6705ZM288.527 64.6705H176.527V48.6705H288.527V64.6705ZM320.527 96.6705H304.527V80.6705H320.527V96.6705ZM320.527 64.6705H304.527V48.6705H320.527V64.6705Z" fill="#007DB6"/>
<path d="M128.527 64.6705H144.527V80.6705H128.527V64.6705Z" fill="#007DB6"/>
<path d="M112.527 128.671H256.527V144.671H112.527V128.671Z" fill="#007DB6"/>
<path d="M64.527 128.671H96.527V144.671H64.527V128.671Z" fill="#007DB6"/>
<path d="M64.527 192.671H80.527V208.671H64.527V192.671Z" fill="#007DB6"/>
<path d="M344.527 240.671C419.638 240.671 480.527 226.344 480.527 208.671C480.527 190.997 419.638 176.671 344.527 176.671C269.416 176.671 208.527 190.997 208.527 208.671C208.527 226.344 269.416 240.671 344.527 240.671Z" fill="#007DB6"/>
<path d="M328.527 160.671H40.527C38.4052 160.671 36.3704 161.513 34.8701 163.014C33.3698 164.514 32.527 166.549 32.527 168.671V232.671C32.527 234.792 33.3698 236.827 34.8701 238.327C36.3704 239.828 38.4052 240.671 40.527 240.671H192.527V208.671C192.527 179.231 259.247 162.911 329.647 160.911C329.283 160.792 328.908 160.712 328.527 160.671ZM96.527 216.671C96.527 218.792 95.6841 220.827 94.1838 222.327C92.6835 223.828 90.6487 224.671 88.527 224.671H56.527C54.4052 224.671 52.3704 223.828 50.8701 222.327C49.3698 220.827 48.527 218.792 48.527 216.671V184.671C48.527 182.549 49.3698 180.514 50.8701 179.014C52.3704 177.513 54.4052 176.671 56.527 176.671H88.527C90.6487 176.671 92.6835 177.513 94.1838 179.014C95.6841 180.514 96.527 182.549 96.527 184.671V216.671ZM160.527 216.671C160.527 218.792 159.684 220.827 158.184 222.327C156.684 223.828 154.649 224.671 152.527 224.671H120.527C118.405 224.671 116.37 223.828 114.87 222.327C113.37 220.827 112.527 218.792 112.527 216.671V184.671C112.527 182.549 113.37 180.514 114.87 179.014C116.37 177.513 118.405 176.671 120.527 176.671H152.527C154.649 176.671 156.684 177.513 158.184 179.014C159.684 180.514 160.527 182.549 160.527 184.671V216.671Z" fill="#007DB6"/>
<path d="M208.527 311.23V368.67C208.527 379.55 256.527 400.67 344.527 400.67C432.527 400.67 480.527 379.55 480.527 368.67V311.23C454.207 327.95 399.247 336.67 344.527 336.67C289.807 336.67 234.847 327.95 208.527 311.23ZM352.527 384.67H336.527V368.67H352.527V384.67Z" fill="#007DB6"/>
<path d="M208.527 391.23V448.67C208.527 459.55 256.527 480.67 344.527 480.67C432.527 480.67 480.527 459.55 480.527 448.67V391.23C454.207 407.95 399.247 416.67 344.527 416.67C289.807 416.67 234.847 407.95 208.527 391.23ZM352.527 456.67H336.527V440.67H352.527V456.67Z" fill="#007DB6"/>
<path d="M208.527 231.23V288.67C208.527 299.55 256.527 320.67 344.527 320.67C432.527 320.67 480.527 299.55 480.527 288.67V231.23C454.207 247.95 399.247 256.67 344.527 256.67C289.807 256.67 234.847 247.95 208.527 231.23ZM352.527 296.67H336.527V280.67H352.527V296.67Z" fill="#007DB6"/>
<path d="M128.527 192.671H144.527V208.671H128.527V192.671Z" fill="#007DB6"/>
</svg>
