<svg width="448" height="449" viewBox="0 0 448 449" fill="none" xmlns="http://www.w3.org/2000/svg">
<g clip-path="url(#clip0)">
<path d="M136.107 416.533C136.107 420.954 132.527 424.53 128.11 424.53C123.694 424.53 120.113 420.954 120.113 416.533C120.113 412.117 123.694 408.536 128.11 408.536C132.527 408.536 136.107 412.117 136.107 416.533Z" fill="#007DB6"/>
<path d="M360.02 448.521V384.546H88.1259V448.521H360.02ZM328.033 392.543H344.026V408.537H328.033V392.543ZM328.033 424.53H344.026V440.524H328.033V424.53ZM296.045 392.543H312.039V408.537H296.045V392.543ZM296.045 424.53H312.039V440.524H296.045V424.53ZM264.057 392.543H280.051V408.537H264.057V392.543ZM264.057 424.53H280.051V440.524H264.057V424.53ZM232.07 392.543H248.064V408.537H232.07V392.543ZM232.07 424.53H248.064V440.524H232.07V424.53ZM200.082 392.543H216.076V408.537H200.082V392.543ZM200.082 424.53H216.076V440.524H200.082V424.53ZM168.095 392.543H184.089V408.537H168.095V392.543ZM168.095 424.53H184.089V440.524H168.095V424.53ZM128.11 392.543C141.359 392.543 152.101 403.285 152.101 416.533C152.101 429.786 141.359 440.524 128.11 440.524C114.862 440.524 104.12 429.786 104.12 416.533C104.12 403.285 114.862 392.543 128.11 392.543Z" fill="#007DB6"/>
<path d="M88.1259 240.602H360.02V176.627H88.1259V240.602ZM328.033 184.624H344.026V200.617H328.033V184.624ZM328.033 216.611H344.026V232.605H328.033V216.611ZM296.045 184.624H312.039V200.617H296.045V184.624ZM296.045 216.611H312.039V232.605H296.045V216.611ZM264.057 184.624H280.051V200.617H264.057V184.624ZM264.057 216.611H280.051V232.605H264.057V216.611ZM232.07 184.624H248.064V200.617H232.07V184.624ZM232.07 216.611H248.064V232.605H232.07V216.611ZM200.082 184.624H216.076V200.617H200.082V184.624ZM200.082 216.611H216.076V232.605H200.082V216.611ZM168.095 184.624H184.089V200.617H168.095V184.624ZM168.095 216.611H184.089V232.605H168.095V216.611ZM128.11 184.624C141.359 184.624 152.101 195.366 152.101 208.614C152.101 221.867 141.359 232.605 128.11 232.605C114.862 232.605 104.12 221.867 104.12 208.614C104.12 195.366 114.862 184.624 128.11 184.624Z" fill="#007DB6"/>
<path d="M360.02 128.645C359.259 128.645 358.603 128.645 357.869 128.696C355.315 128.926 352.808 127.896 351.153 125.935C349.485 123.995 348.849 121.371 349.438 118.884C361.36 68.4539 331.09 17.669 281.063 4.16251C231.031 -9.34396 179.317 19.309 164.241 68.8873C163.44 71.5543 161.312 73.616 158.618 74.3266C155.924 75.0334 153.054 74.2915 151.043 72.3665C134.869 56.7749 110.949 52.3547 90.2696 61.1325C69.5941 69.9104 56.1579 90.1877 56.1384 112.652C56.0993 121.055 57.9853 129.348 61.6479 136.908C62.6671 139.009 62.7178 141.453 61.7885 143.593C60.8553 145.736 59.0357 147.361 56.8022 148.048C20.2773 159.102 -3.34632 194.424 0.382696 232.402C4.11171 270.379 34.1547 300.43 72.1321 304.171V272.589C72.1321 268.173 75.7128 264.592 80.129 264.592H368.017C372.433 264.592 376.014 268.173 376.014 272.589V303.117C420.731 294.854 451.785 253.87 447.635 208.583C443.48 163.296 405.495 128.638 360.02 128.645ZM376.014 248.599C376.014 253.019 372.433 256.596 368.017 256.596H80.129C75.7128 256.596 72.1321 253.019 72.1321 248.599V168.63C72.1321 164.214 75.7128 160.633 80.129 160.633H368.017C372.433 160.633 376.014 164.214 376.014 168.63V248.599Z" fill="#007DB6"/>
<path d="M136.107 208.614C136.107 213.034 132.527 216.611 128.11 216.611C123.694 216.611 120.113 213.034 120.113 208.614C120.113 204.198 123.694 200.617 128.11 200.617C132.527 200.617 136.107 204.198 136.107 208.614Z" fill="#007DB6"/>
<path d="M136.107 312.574C136.107 316.994 132.527 320.571 128.11 320.571C123.694 320.571 120.113 316.994 120.113 312.574C120.113 308.158 123.694 304.577 128.11 304.577C132.527 304.577 136.107 308.158 136.107 312.574Z" fill="#007DB6"/>
<path d="M360.02 280.586H88.1259V344.561H360.02V280.586ZM128.11 336.565C114.862 336.565 104.12 325.827 104.12 312.574C104.12 299.325 114.862 288.583 128.11 288.583C141.359 288.583 152.101 299.325 152.101 312.574C152.101 325.827 141.359 336.565 128.11 336.565ZM184.089 336.565H168.095V320.571H184.089V336.565ZM184.089 304.577H168.095V288.583H184.089V304.577ZM216.076 336.565H200.082V320.571H216.076V336.565ZM216.076 304.577H200.082V288.583H216.076V304.577ZM248.064 336.565H232.07V320.571H248.064V336.565ZM248.064 304.577H232.07V288.583H248.064V304.577ZM280.051 336.565H264.057V320.571H280.051V336.565ZM280.051 304.577H264.057V288.583H280.051V304.577ZM312.039 336.565H296.045V320.571H312.039V336.565ZM312.039 304.577H296.045V288.583H312.039V304.577ZM344.026 336.565H328.033V320.571H344.026V336.565ZM344.026 304.577H328.033V288.583H344.026V304.577Z" fill="#007DB6"/>
</g>
<defs>
<clipPath id="clip0">
<rect width="448" height="448" fill="white" transform="translate(0 0.670532)"/>
</clipPath>
</defs>
</svg>
