<svg width="129" height="71" viewBox="0 0 129 71" fill="none" xmlns="http://www.w3.org/2000/svg">
<path d="M101.814 18.2454C99.6144 18.2454 97.4144 18.5454 95.3144 19.0454C89.5144 7.94536 77.8144 0.245361 64.4144 0.245361C50.9144 0.245361 39.2144 7.94537 33.4144 19.1454C31.4144 18.6454 29.3144 18.4454 27.1144 18.4454C12.4144 18.4454 0.514404 29.9454 0.514404 44.2454C0.514404 58.3454 12.2144 69.8454 26.7144 70.0454H27.1144H62.1144C62.9144 70.1454 63.6144 70.1454 64.4144 70.1454C65.2144 70.1454 66.0144 70.1454 66.7144 70.0454H101.814V69.8454C116.514 69.8454 128.414 58.3454 128.414 44.0454C128.414 29.7454 116.514 18.2454 101.814 18.2454ZM26.6144 61.9454C16.9144 61.7454 9.0144 53.7454 9.0144 43.9454C9.0144 34.1454 16.8144 26.2454 26.6144 25.9454C26.7144 25.9454 26.9144 25.9454 27.0144 25.9454C28.2144 25.9454 29.4144 26.0454 30.5144 26.2454C29.8144 29.0454 29.4144 32.0454 29.4144 35.0454C29.4144 43.8454 32.7144 51.9454 38.1144 58.0454C35.0144 60.4454 31.2144 61.8454 27.0144 61.8454C26.9144 61.9454 26.8144 61.9454 26.6144 61.9454ZM64.4144 61.2454C59.1144 61.2454 54.2144 59.7454 50.1144 57.0454C47.6144 55.4454 45.4144 53.4454 43.6144 51.2454C40.0144 46.7454 37.8144 41.0454 37.8144 34.8454C37.8144 33.1454 38.0144 31.4454 38.3144 29.8454C38.7144 27.8454 39.3144 25.9454 40.1144 24.1454C40.4144 23.4454 40.7144 22.8454 41.1144 22.1454C45.6144 13.9454 54.4144 8.44536 64.4144 8.44536C74.4144 8.44536 83.2144 13.9454 87.7144 22.0454C88.1144 22.7454 88.4144 23.3454 88.7144 24.0454C90.2144 27.3454 91.0144 30.9454 91.0144 34.7454C91.0144 44.0454 86.2144 52.1454 78.9144 56.8454C74.7144 59.7454 69.7144 61.2454 64.4144 61.2454Z" fill="#2CC5F4"/>
<path d="M30.6143 26.3454C29.5143 26.1454 28.3143 26.0454 27.1143 26.0454C27.0143 26.0454 26.8143 26.0454 26.7143 26.0454C17.0143 26.2454 9.11426 34.2454 9.11426 44.0454C9.11426 53.8454 16.9143 61.7454 26.7143 62.0454C26.8143 62.0454 27.0143 62.0454 27.1143 62.0454C31.3143 62.0454 35.1143 60.6454 38.2143 58.2454C32.8143 52.1454 29.5143 44.0454 29.5143 35.2454C29.4143 32.1454 29.8143 29.1454 30.6143 26.3454Z" fill="white"/>
<path d="M88.7142 24.2454C88.4142 23.5454 88.0142 22.8454 87.7142 22.2454C83.2142 14.1454 74.4142 8.64539 64.4142 8.64539C54.3142 8.64539 45.6142 14.1454 41.1142 22.3454C40.7142 22.9454 40.4142 23.6454 40.1142 24.3454C39.3142 26.1454 38.7142 28.0454 38.3142 30.0454C38.0142 31.6454 37.8142 33.3454 37.8142 35.0454C37.8142 41.2454 40.0142 46.9454 43.6142 51.4454C45.4142 53.7454 47.6142 55.7454 50.1142 57.2454C54.2142 59.8454 59.2142 61.4454 64.4142 61.4454C69.7142 61.4454 74.7142 59.8454 78.9142 57.1454C86.2142 52.4454 91.0142 44.3454 91.0142 35.0454C91.0142 31.1454 90.1142 27.4454 88.7142 24.2454ZM75.5142 48.1454C73.6142 49.8454 71.2142 51.0454 68.6142 51.7454C63.1142 53.1454 57.4142 51.7454 53.2142 48.3454C50.3142 45.9454 48.1142 42.5454 47.4142 38.3454C46.9142 35.8454 47.1142 33.4454 47.8142 30.8454C48.0142 31.0454 48.1142 31.1454 48.3142 31.2454C49.3142 32.1454 50.2142 33.0454 51.3142 33.7454C51.3142 33.7454 51.3142 33.7454 51.4142 33.7454C53.5142 35.1454 55.8142 35.4454 58.2142 34.4454C60.1142 33.7454 61.8142 32.6454 63.0142 31.0454C64.8142 28.8454 65.1142 26.4454 64.2142 23.9454C64.1142 23.5454 63.9142 23.1454 63.7142 22.7454C63.0142 21.4454 62.1142 20.3454 61.3142 19.1454C61.1142 18.8454 60.9142 18.6454 60.5142 18.2454C61.6142 18.0454 62.6142 17.8454 63.5142 17.7454C68.1142 17.4454 72.3142 18.8454 75.7142 21.9454C76.4142 22.5454 77.0142 23.2454 77.6142 23.9454C78.7142 25.3454 79.6142 26.8454 80.2142 28.5454C80.7142 29.8454 81.0142 31.1454 81.2142 32.6454C82.1142 38.8454 79.8142 44.4454 75.5142 48.1454Z" fill="white"/>
<path d="M81.3143 32.8454C81.1143 31.4454 80.8143 30.0453 80.3143 28.7453C79.7143 27.0453 78.8143 25.5454 77.7143 24.1454C77.1143 23.4454 76.5143 22.7454 75.8143 22.1454C72.3143 19.0454 68.2143 17.6453 63.6143 17.9453C62.6143 18.0453 61.7143 18.2453 60.6143 18.4453C60.9143 18.8453 61.2143 19.0454 61.4143 19.3454C62.2143 20.5454 63.2143 21.7453 63.8143 22.9453C64.0143 23.3453 64.2143 23.7454 64.3143 24.1454C65.2143 26.5454 64.9143 28.9453 63.1143 31.2453C61.8143 32.8453 60.2143 33.8454 58.3143 34.6454C55.9143 35.5454 53.6143 35.3453 51.5143 33.9453C51.5143 33.9453 51.5143 33.9453 51.4143 33.9453C50.3143 33.2453 49.4143 32.2453 48.4143 31.4453C48.3143 31.3453 48.1143 31.1454 47.9143 31.0454C47.2143 33.5454 47.0143 36.0454 47.5143 38.5454C48.3143 42.7453 50.4143 46.1454 53.3143 48.5454C57.4143 51.9454 63.1143 53.4453 68.7143 51.9453C71.3143 51.2453 73.7143 50.0454 75.6143 48.3454C79.8143 44.4454 82.1143 38.8454 81.3143 32.8454Z" fill="black"/>
</svg>
