<svg width="62" height="67" viewBox="0 0 62 67" fill="none" xmlns="http://www.w3.org/2000/svg">
<path d="M38.8664 20.9184C36.1664 20.8184 33.5664 21.2184 31.9664 23.5184C31.0664 24.8184 30.3665 26.6184 30.1665 28.2184C29.7665 31.3184 32.3664 34.5184 35.4664 35.3184C39.4664 36.4184 42.1664 34.6184 44.8664 29.3184C47.2664 34.8184 44.1664 42.7184 38.3664 46.1184C31.5664 50.1184 23.1664 48.7184 18.2664 42.1184C13.6664 35.9184 14.5664 27.8184 20.0664 22.4184C25.0664 17.4184 33.8664 16.7184 38.8664 20.9184Z" fill="#44C8F5"/>
<path d="M33.5664 66.7184C33.7664 64.8184 33.7664 63.3184 33.9664 61.9184C34.5664 58.1184 36.8664 55.7184 40.2664 53.9184C43.7664 52.0184 47.4664 50.4184 50.3664 47.5184C52.9664 44.9184 54.2664 41.7184 54.3664 38.0184C54.4664 34.8184 54.5664 31.5184 54.4664 28.3184C54.3664 25.3184 55.4664 22.9184 57.5664 20.9184C58.7664 19.8184 60.0664 18.9184 61.6664 17.7184C61.7664 18.7184 61.8664 19.2184 61.8664 19.8184C61.8664 26.0184 61.9664 32.1184 61.8664 38.3184C61.7664 46.1184 58.2664 52.1184 51.6664 56.2184C46.2664 59.6184 40.6664 62.8184 35.1664 66.0184C34.7664 66.2184 34.3664 66.3184 33.5664 66.7184Z" fill="#00AEEF"/>
<path d="M28.8664 66.6184C27.2664 65.7184 25.7664 64.8184 24.1664 63.9184C19.2664 60.9184 14.1664 58.3184 9.46642 54.9184C4.06642 51.0184 1.26639 45.4184 1.06639 38.8184C0.866394 32.5184 0.966418 26.1184 0.966418 19.8184C0.966418 19.3184 1.06639 18.8184 1.06639 18.2184C4.56639 19.4184 8.76642 23.8184 8.46642 28.1184C8.26642 31.1184 8.46642 34.1184 8.46642 37.1184C8.46642 42.9184 10.8664 47.4184 16.0664 50.3184C18.7664 51.8184 21.4664 53.5184 24.1664 55.1184C27.1664 56.9184 28.5664 59.6184 28.9664 62.9184C29.0664 64.0184 29.1664 65.2184 29.2664 66.4184C29.1664 66.4184 28.9664 66.5184 28.8664 66.6184Z" fill="#0095DA"/>
<path d="M59.3663 13.3184C57.2663 15.4184 51.3663 17.5184 47.4663 15.1184C44.3663 13.2184 41.2663 11.5184 38.0663 9.81836C33.4663 7.31836 28.8663 7.51837 24.3663 10.0184C21.5663 11.6184 18.6663 13.1184 15.9663 14.8184C11.9663 17.3184 6.86631 15.9184 3.46631 13.3184C4.86631 12.5184 6.16631 11.7184 7.46631 11.0184C12.4663 8.21837 17.3663 5.41837 22.3663 2.71837C26.3663 0.618371 30.6663 0.318368 35.1663 0.918368C39.2663 1.51837 42.6663 3.81836 46.2663 5.81836C50.1663 7.91836 53.9663 10.1184 57.7663 12.3184C58.3663 12.6184 58.8663 12.9184 59.3663 13.3184Z" fill="#007DB6"/>
<path d="M48.7663 20.4184C48.7663 22.1184 47.2663 23.6184 45.6663 23.6184C44.0663 23.6184 42.4663 22.1184 42.4663 20.4184C42.4663 18.7184 43.9663 17.1184 45.5663 17.1184C47.3663 17.1184 48.7663 18.6184 48.7663 20.4184Z" fill="#44C8F5"/>
</svg>
