<svg width="61" height="67" viewBox="0 0 61 67" fill="none" xmlns="http://www.w3.org/2000/svg">
<path d="M35.8853 22.7036C36.1853 22.5036 37.0854 21.7036 38.4854 20.7036C37.1854 21.7036 36.1853 22.5036 35.8853 22.7036Z" fill="#61BD6A"/>
<path d="M60.4856 22.9036C60.4856 19.7036 59.5855 16.7036 57.1855 14.5036C56.6855 14.1036 56.1855 13.7036 55.6855 13.3036L55.5856 13.2036C55.4856 13.2036 55.4855 13.2036 55.3855 13.2036C55.2855 13.2036 55.2855 13.2036 55.1855 13.2036H55.0856C55.0856 13.2036 55.0856 13.2036 54.9856 13.2036C54.8856 13.2036 54.8855 13.2036 54.7855 13.2036C53.1855 13.0036 51.1855 13.5036 49.1855 14.3036C48.5855 14.5036 48.0856 14.8036 47.4856 15.0036C47.0856 15.2036 46.6855 15.4036 46.1855 15.6036C44.8855 16.3036 43.6856 17.0036 42.4856 17.7036C42.2856 17.8036 42.1856 17.9036 41.9856 18.0036C41.6856 18.2036 41.2856 18.4036 40.9856 18.7036C40.3856 19.1036 39.7855 19.6036 39.1855 20.0036C39.0855 20.1036 38.8855 20.2036 38.7855 20.3036C38.6855 20.4036 38.4855 20.5036 38.3855 20.6036C37.8855 21.0036 37.4855 21.3036 37.1855 21.6036C36.9855 21.8036 36.7855 21.9036 36.6855 22.1036C36.4855 22.2036 36.3855 22.4036 36.2855 22.4036C36.0855 22.6036 35.9856 22.6036 35.9856 22.6036C36.0856 22.6036 40.3856 21.2036 43.9856 22.4036C45.9856 23.3036 47.3855 24.8036 48.2855 26.8036C48.4855 27.2036 48.5855 27.5036 48.6855 27.8036C48.9855 28.7036 49.2855 29.7036 49.2855 30.6036C49.2855 32.8036 47.9856 35.5036 46.0856 37.4036C42.0856 41.3036 38.1855 45.3036 34.1855 49.2036C33.8855 49.5036 33.5855 49.8036 33.1855 50.1036L25.9856 56.9036C25.9856 56.9036 23.3855 59.7036 20.6855 59.6036C17.9855 59.5036 15.2855 59.2036 15.2855 59.2036L15.1855 59.4036C15.1855 59.4036 15.2855 59.4036 15.2855 59.5036C18.3855 61.3036 21.3856 63.0036 24.4856 64.7036C27.8856 66.6036 31.4856 66.7036 34.9856 65.1036C37.0856 64.1036 39.0855 62.8036 41.1855 61.7036C45.2855 59.3036 49.4856 56.9036 53.5856 54.6036C57.9856 52.1036 60.2855 48.5036 60.2855 43.4036C60.2855 40.0036 60.2855 36.6036 60.2855 33.3036C60.4855 29.9036 60.4856 26.4036 60.4856 22.9036Z" fill="#007DB6"/>
<path d="M55.0853 13.0037C53.9853 12.3037 52.7853 11.6037 51.6853 10.9037C48.6853 9.10367 45.5853 7.40367 42.5853 5.60367C39.8853 4.10367 37.1853 2.50367 34.3853 1.10367C32.3853 0.103667 30.1853 0.203661 28.0853 0.503661C25.9853 0.803661 24.1854 1.90366 22.4854 3.00366C17.0854 6.10366 11.6853 9.30367 6.28528 12.4037C5.88528 12.6037 5.48533 12.9037 5.08533 13.2037C4.68533 13.5037 4.28535 13.8037 3.98535 14.2037C3.18535 16.0037 2.48535 18.1037 2.48535 19.9037C2.48535 24.5037 13.8853 36.7037 13.8853 36.7037C13.5853 36.3037 13.1853 35.9037 12.8853 35.6037C11.6853 34.2037 11.3854 32.4037 11.4854 30.5037C11.5854 26.3037 14.4853 23.0037 18.2853 22.0037C18.3853 22.0037 18.4853 22.0037 18.5853 21.9037C21.5853 21.2037 24.4853 21.9037 26.8853 24.1037C28.0853 25.2037 29.3853 26.0037 31.0853 25.8037C32.3853 25.6037 33.2853 24.8037 34.2853 24.2037C34.7853 23.8037 35.3854 23.5037 35.9854 23.2037C36.0854 23.1037 36.2853 23.1037 36.3853 23.0037C36.3853 23.0037 36.4853 22.9037 36.6853 22.8037C36.7853 22.7037 36.8853 22.6037 37.0853 22.5037C37.2853 22.4037 37.3853 22.2037 37.5853 22.0037C37.8853 21.7037 38.2853 21.4037 38.7853 21.0037C38.8853 20.9037 39.0853 20.8037 39.1853 20.7037C39.2853 20.6037 39.4853 20.5037 39.5853 20.4037C40.1853 20.0037 40.7853 19.6037 41.3853 19.1037C41.6853 18.9037 42.0853 18.7037 42.3853 18.4037C42.5853 18.3037 42.6853 18.2037 42.8853 18.1037C44.0853 17.4037 45.2853 16.6037 46.5853 16.0037C46.9853 15.8037 47.3853 15.6037 47.8853 15.4037C48.4853 15.1037 48.9853 14.9037 49.5853 14.7037C51.5853 13.9037 53.5853 13.4037 55.1853 13.6037C55.1853 13.6037 55.2853 13.6037 55.3853 13.6037C55.3853 13.6037 55.3854 13.6037 55.4854 13.6037H55.5853C55.6853 13.6037 55.6853 13.6037 55.7853 13.6037C55.8853 13.6037 55.8854 13.6037 55.9854 13.6037C55.3854 13.1037 55.0853 13.0037 55.0853 13.0037ZM35.8853 22.7037C36.1853 22.5037 37.0854 21.7037 38.4854 20.7037C37.1854 21.7037 36.1853 22.5037 35.8853 22.7037Z" fill="#00AEEF"/>
<path d="M20.7854 59.8036C23.4854 59.9036 26.0854 57.1036 26.0854 57.1036L33.2854 50.3036C32.3854 51.0036 31.2854 51.5036 30.0854 51.6036C28.1854 51.8036 26.6855 50.8036 25.4855 49.5036C21.5855 45.3036 17.6854 41.0036 13.7854 36.6036C13.7854 36.6036 2.38538 24.4036 2.38538 19.8036C2.38538 18.0036 3.08538 16.0036 3.88538 14.1036C2.98538 15.0036 2.18547 16.1036 1.48547 17.2036C0.485474 18.9036 0.0854492 20.9036 0.0854492 22.9036C0.0854492 29.9036 0.0854492 36.9036 0.0854492 43.9036C0.0854492 47.3036 1.2854 50.2036 3.7854 52.4036C5.3854 53.8036 7.28545 54.9036 9.08545 55.9036C11.0854 57.1036 13.1854 58.3036 15.1854 59.5036L15.2854 59.3036C15.3854 59.4036 18.0854 59.7036 20.7854 59.8036Z" fill="#00AEEF"/>
<path d="M33.6854 35.2037C33.6854 33.9037 32.7855 32.7037 31.4855 32.2037C31.0855 32.1037 30.6854 32.0037 30.2854 32.0037C28.4854 32.0037 26.9854 33.5037 26.7854 35.3037C26.7854 35.8037 26.8854 36.2037 27.0854 36.6037C27.6854 37.7037 28.9855 38.6037 29.9855 38.6037C31.6855 38.5037 33.7854 37.2037 33.6854 35.2037Z" fill="#007DB6"/>
<path d="M39.1853 32.1037C38.8853 32.0037 38.5853 32.0037 38.1853 32.0037C36.3853 32.0037 34.9854 33.5037 34.9854 35.2037C34.9854 35.5037 35.0853 35.8037 35.0853 36.1037C35.4853 37.4037 36.7853 38.4037 38.1853 38.4037C40.0853 38.4037 41.4854 37.0037 41.4854 35.2037C41.5854 33.7037 40.5853 32.5037 39.1853 32.1037Z" fill="#00AEEF"/>
<path d="M22.3853 32.0037C22.3853 32.0037 22.2853 32.0037 22.3853 32.0037C21.9853 32.0037 21.6853 32.0037 21.3853 32.1037C20.0853 32.5037 19.0854 33.6037 18.9854 35.0037C18.8854 36.8037 20.3854 38.3037 22.1854 38.3037C23.9854 38.3037 25.4854 36.9037 25.4854 35.2037C25.5854 33.5037 24.1853 32.1037 22.3853 32.0037Z" fill="#00AEEF"/>
</svg>
