<svg width="67" height="67" viewBox="0 0 67 67" fill="none" xmlns="http://www.w3.org/2000/svg">
<path d="M47.2377 62.5454C47.1377 62.1454 47.0377 61.7454 47.0377 61.3454C46.7377 59.2454 45.6377 57.7454 44.0377 56.5454C42.7377 55.6454 41.3376 55.1454 39.8376 54.7454C39.5376 54.6454 39.4377 54.5454 39.4377 54.2454C39.4377 53.0454 39.4377 51.8454 39.4377 50.7454C39.4377 50.3454 39.6377 50.2454 39.9377 50.2454C40.4377 50.2454 40.9377 50.2454 41.4377 50.2454C44.3377 50.1454 46.8377 49.1454 49.0377 47.3454C50.1377 46.4454 51.0376 45.3454 51.8376 44.1454C52.4376 43.2454 52.7377 42.1454 53.0377 41.1454C53.1377 40.8454 53.2376 40.4454 53.3376 40.0454C53.4376 39.9454 53.5377 39.7454 53.6377 39.6454C55.0377 38.8454 55.6377 37.5454 55.7377 36.0454C55.8377 35.1454 55.7377 34.3454 55.6377 33.4454C55.4377 32.1454 54.8377 30.9454 53.5377 30.4454C52.8377 30.1454 52.5377 29.7454 52.2377 29.1454C50.9377 26.4454 48.9377 24.4454 46.2377 23.1454C44.9377 22.5454 43.6377 22.1454 42.2377 22.0454C41.0377 21.9454 39.8377 21.9454 38.6377 21.8454C38.4377 21.8454 38.1377 21.7454 38.0377 21.6454C37.2377 20.8454 36.3377 20.5454 35.2377 20.4454C34.8377 20.4454 34.7377 20.2454 34.7377 19.8454C34.7377 18.5454 34.7377 17.3454 34.7377 16.0454C34.7377 15.7454 34.8377 15.5454 35.1377 15.3454C35.9377 14.9454 36.3376 14.2454 36.3376 13.2454C36.3376 12.3454 35.9377 11.6454 35.1377 11.3454C34.1377 10.8454 32.8377 11.0454 32.1377 12.1454C31.4377 13.1454 31.7377 14.5454 32.7377 15.2454C33.3377 15.6454 33.4377 16.0454 33.4377 16.6454C33.4377 17.7454 33.4377 18.8454 33.4377 19.9454C33.4377 20.3454 33.3377 20.4454 32.9377 20.5454C31.8377 20.6454 30.9377 21.0454 30.1377 21.7454C30.0377 21.8454 29.7377 21.9454 29.6377 21.9454C28.9377 21.9454 28.2377 21.9454 27.4377 21.9454C24.5377 21.9454 21.9377 22.7454 19.6377 24.5454C17.9377 25.8454 16.6377 27.5454 15.7377 29.5454C15.6377 29.8454 15.4377 30.1454 15.0377 30.3454C13.4377 30.9454 12.7377 32.1454 12.5377 33.7454C12.4377 34.3454 12.3377 34.9454 12.4377 35.5454C12.5377 36.4454 12.6377 37.4454 13.1377 38.2454C13.4377 38.8454 13.9377 39.2454 14.5377 39.6454C14.7377 39.7454 14.9377 40.0454 15.0377 40.2454C15.6377 42.9454 16.9377 45.2454 19.0377 47.1454C20.4377 48.3454 22.0376 49.2454 23.8376 49.7454C25.2376 50.1454 26.7377 50.1454 28.2377 50.1454C28.8377 50.1454 28.8376 50.1454 28.8376 50.7454C28.8376 51.8454 28.8376 53.0454 28.8376 54.1454C28.8376 54.4454 28.7377 54.5454 28.4377 54.6454C26.8377 55.0454 25.3377 55.6454 24.0377 56.6454C22.7377 57.6454 21.7376 58.9454 21.3376 60.6454C21.2376 61.0454 21.1377 61.4454 21.1377 61.9454C21.1377 62.3454 20.9377 62.6454 20.5377 62.7454C18.6377 63.5454 16.7377 64.2454 14.7377 64.6454C13.2377 64.9454 11.6377 65.3454 10.1377 65.5454C8.6377 65.7454 7.1377 65.8454 5.6377 65.9454C4.2377 66.0454 2.73767 66.0454 1.23767 66.1454C1.13767 66.1454 1.03765 66.1454 0.837646 66.1454C0.737646 66.1454 0.637744 66.0454 0.437744 66.0454C0.537744 65.9454 0.537695 65.8454 0.637695 65.7454C2.5377 64.0454 4.0377 62.0454 5.1377 59.7454C5.7377 58.5454 6.13774 57.3454 6.43774 56.0454C6.73774 54.7454 6.73772 53.4454 6.53772 52.2454C6.43772 50.7454 5.93767 49.3454 5.23767 48.0454C4.13767 45.9454 3.2377 43.8454 2.6377 41.5454C2.3377 40.3454 2.03765 39.1454 1.83765 37.9454C1.73765 37.2454 1.6377 36.4454 1.6377 35.7454C1.5377 34.1454 1.43772 32.5454 1.53772 30.9454C1.63772 29.3454 1.9377 27.7454 2.1377 26.1454C2.3377 24.9454 2.63772 23.7454 3.03772 22.6454C3.73772 20.5454 4.63767 18.4454 5.73767 16.5454C7.43767 13.5454 9.63767 10.8454 12.2377 8.54541C13.8377 7.04541 15.6377 5.8454 17.5377 4.6454C19.7377 3.3454 22.0377 2.34541 24.4377 1.54541C25.8377 1.14541 27.2377 0.84541 28.6377 0.54541C30.4377 0.14541 32.3377 0.0454102 34.1377 0.0454102C35.7377 0.0454102 37.4377 0.145404 39.0377 0.445404C43.0377 1.0454 46.8376 2.4454 50.3376 4.4454C52.8376 5.8454 55.1377 7.6454 57.1377 9.6454C59.9377 12.4454 62.1377 15.6454 63.7377 19.2454C64.6377 21.1454 65.2377 23.1454 65.7377 25.1454C66.2377 27.2454 66.5377 29.3454 66.5377 31.4454C66.5377 32.9454 66.5377 34.4454 66.4377 35.9454C66.3377 37.0454 66.2377 38.1454 65.9377 39.2454C65.5377 40.9454 65.0377 42.6454 64.4377 44.2454C63.7377 46.3454 62.6377 48.2454 61.5377 50.0454C59.7377 52.9454 57.4377 55.4454 54.7377 57.6454C52.5377 59.4454 50.1377 60.9454 47.5377 62.1454C47.4377 62.4454 47.4377 62.4454 47.2377 62.5454Z" fill="#00AEEF"/>
<path d="M34.1378 27.1454C36.6378 27.1454 39.0378 27.1454 41.5378 27.1454C43.1378 27.1454 44.5377 27.7454 45.8377 28.7454C47.3377 29.9454 48.2377 31.4454 48.7377 33.3454C48.8377 33.6454 48.8377 33.8454 48.8377 34.1454C48.8377 35.6454 48.9377 37.0454 48.7377 38.5454C48.5377 40.2454 47.7378 41.7454 46.5378 42.9454C45.3378 44.0454 44.0378 44.8454 42.4378 45.0454C41.8378 45.1454 41.3377 45.1454 40.7377 45.1454C36.1377 45.1454 31.6378 45.1454 27.0378 45.1454C24.6378 45.1454 22.7378 44.2454 21.1378 42.4454C20.1378 41.2454 19.4377 39.8454 19.3377 38.1454C19.3377 36.4454 19.1378 34.8454 19.4378 33.1454C19.9378 30.5454 21.5378 28.8454 23.9378 27.7454C24.9378 27.3454 25.9378 27.1454 27.0378 27.1454C29.4378 27.1454 31.7378 27.1454 34.1378 27.1454ZM34.1378 41.3454C34.3378 41.3454 34.5377 41.2454 34.7377 41.2454C36.1377 41.1454 36.9378 39.9454 37.1378 38.6454C37.1378 38.3454 37.0377 38.2454 36.7377 38.2454C34.9377 38.2454 33.1377 38.2454 31.3377 38.2454C31.0377 38.2454 30.9378 38.3454 31.0378 38.6454C31.3378 40.5454 32.3378 41.3454 34.1378 41.3454ZM41.5378 36.1454C42.6378 36.2454 43.6378 35.1454 43.6378 34.0454C43.6378 32.6454 42.6378 31.9454 41.5378 31.9454C40.4378 31.9454 39.4378 32.8454 39.5378 34.0454C39.4378 35.3454 40.2378 36.1454 41.5378 36.1454ZM28.7377 34.1454C28.8377 32.8454 27.7378 32.0454 26.6378 32.0454C25.5378 32.0454 24.4378 33.1454 24.5378 34.1454C24.6378 35.2454 25.3378 36.1454 26.6378 36.2454C27.7378 36.2454 28.8377 35.2454 28.7377 34.1454Z" fill="#007DB6"/>
</svg>
