<svg width="512" height="513" viewBox="0 0 512 513" fill="none" xmlns="http://www.w3.org/2000/svg">
<path d="M302.3 205.271C304.8 205.271 306.7 205.271 308.8 205.271C308.9 204.171 309.1 203.271 309.1 202.271C309.1 188.971 309.2 175.771 309 162.471C309 161.071 308 159.171 306.9 158.371C296.6 151.671 292.1 140.371 295.7 129.171C299.1 118.471 309.6 111.071 320.5 111.671C332.6 112.471 341.8 120.671 344 132.571C346 143.571 340 154.571 329 159.571C328.4 159.871 327.9 160.171 327.3 160.471C327.3 175.171 327.3 189.871 327.3 205.071C333.4 205.071 339.3 205.071 345.3 205.071C356.9 205.071 365.5 212.671 366.1 224.171C366.6 234.271 366.2 244.371 366.2 254.871C361.4 254.871 356.8 254.871 352.2 254.871C337.7 254.971 329.2 263.471 329.2 277.971C329.2 281.971 329.1 285.971 329.3 289.971C329.7 301.271 338.5 309.971 349.8 310.171C355.1 310.271 360.5 310.171 366.1 310.171C366.1 316.371 366.1 322.271 366.1 328.671C361.2 328.671 356.5 328.671 351.8 328.671C337.7 328.771 329.3 337.171 329.2 351.371C329.2 355.571 329.1 359.871 329.3 364.071C329.8 374.871 338.3 383.371 349.1 383.771C354.7 383.971 360.3 383.771 366.4 383.771C366.4 387.571 366.4 390.871 366.4 394.171C366.4 397.471 366.4 400.871 366.4 404.571C368.2 404.571 369.5 404.571 370.8 404.571C387.6 404.571 404.5 404.571 421.3 404.571C428.8 404.571 433.3 411.271 430.2 417.471C428.4 420.871 425.5 422.471 421.7 422.471C415.5 422.471 409.2 422.471 403 422.471C299.9 422.471 196.9 422.471 93.8 422.471C92.7 422.471 91.6 422.471 90.4 422.471C84.8 422.371 80.8 418.671 80.8 413.571C80.8 408.371 84.8 404.571 90.6 404.471C95.6 404.371 100.6 404.471 105.6 404.471C107 404.471 108.3 404.471 110.2 404.471C110.2 402.871 110.2 401.571 110.2 400.271C110.2 322.871 110.2 245.471 110.2 168.171C110.2 153.771 115.6 147.071 129.7 143.771C130 143.671 130.4 143.471 130.9 143.171C130.9 139.371 130.8 135.571 130.9 131.671C131.2 120.471 139.6 111.871 150.7 111.171C182.1 109.271 213.5 107.371 244.8 105.371C260.8 104.371 270.1 112.971 270.1 129.071C270.1 133.771 270.1 138.571 270.1 143.371C271 143.671 271.6 143.971 272.3 144.071C283.4 145.971 290.4 154.071 290.4 165.371C290.4 205.171 290.4 244.871 290.4 284.671C290.4 323.571 290.4 362.471 290.4 401.271C290.4 402.171 290.4 402.971 290.4 404.171C294.3 404.171 298.1 404.171 302.3 404.171C302.3 338.271 302.3 271.971 302.3 205.271ZM233.3 260.071C228.7 260.071 224.1 259.971 219.4 260.071C213.4 260.171 209.7 263.571 209.6 269.471C209.5 278.871 209.5 288.271 209.6 297.571C209.7 303.171 213.1 306.771 218.7 306.871C228.3 307.071 237.9 307.071 247.5 306.871C252.9 306.771 256.4 303.171 256.5 297.871C256.7 288.271 256.7 278.571 256.5 268.971C256.4 263.471 252.6 260.071 247 259.971C242.5 259.971 237.9 260.071 233.3 260.071ZM190.9 356.571C190.9 351.771 191 347.071 190.9 342.271C190.8 336.871 187.5 333.071 182.1 332.971C172.4 332.771 162.6 332.771 152.9 332.971C147.8 333.071 144.2 336.371 144.1 341.371C143.8 351.371 143.8 361.371 144.1 371.371C144.2 376.571 147.9 379.871 153.2 379.971C162.7 380.071 172.2 380.071 181.7 379.971C187.4 379.871 190.8 376.271 191 370.371C191 365.871 190.9 361.171 190.9 356.571ZM233.1 233.971C237.7 233.971 242.3 234.071 246.9 233.971C252.9 233.871 256.5 230.371 256.6 224.371C256.7 215.171 256.7 205.871 256.6 196.671C256.5 190.871 253.3 187.271 247.7 187.171C238 186.871 228.2 186.871 218.5 187.171C213.1 187.271 209.7 190.871 209.6 196.371C209.5 205.871 209.5 215.371 209.6 224.871C209.7 230.571 213.4 233.971 219.2 234.071C223.9 233.971 228.5 233.971 233.1 233.971ZM232.9 380.071C237.5 380.071 242.1 380.171 246.7 380.071C252.8 379.971 256.5 376.371 256.6 370.271C256.7 361.071 256.7 351.771 256.6 342.571C256.5 336.671 252.9 333.071 246.9 332.971C237.7 332.871 228.5 332.871 219.3 332.971C213.3 333.071 209.7 336.671 209.6 342.571C209.5 351.971 209.5 361.271 209.6 370.671C209.7 376.371 213.4 379.971 219 380.071C223.7 380.171 228.3 380.071 232.9 380.071ZM190.9 283.371C190.9 278.871 190.9 274.371 190.9 269.871C190.8 263.571 187.4 260.071 181.2 260.071C172.1 260.071 163 259.971 153.9 260.071C147.8 260.071 144.2 263.371 144 269.371C143.8 278.871 143.8 288.371 144 297.871C144.1 303.371 147.5 306.871 153 306.971C162.6 307.171 172.2 307.171 181.8 306.971C187.4 306.871 190.8 303.271 190.9 297.671C191 292.871 190.9 288.171 190.9 283.371ZM167.2 233.971C171.9 233.971 176.7 234.071 181.4 233.971C187.2 233.871 190.8 230.371 190.8 224.671C190.9 215.271 190.9 205.971 190.8 196.571C190.8 190.871 187.6 187.371 181.8 187.171C172.2 186.971 162.6 186.871 153 187.171C147.4 187.271 144.1 190.671 143.9 196.171C143.7 205.771 143.7 215.371 143.9 225.071C144 230.971 147.6 234.071 153.6 234.171C158.3 233.971 162.7 233.971 167.2 233.971ZM252.1 143.771C252.1 138.671 252.1 133.971 252.1 129.171C252.1 123.971 251.4 123.371 246.2 123.671C230.4 124.671 214.6 125.571 198.8 126.571C183.5 127.471 168.2 128.471 152.9 129.371C150.6 129.471 148.9 130.071 148.9 132.671C148.8 136.271 148.9 139.871 148.9 143.571C183.4 143.771 217.5 143.771 252.1 143.771Z" fill="#007DB6"/>
<path d="M401.9 129.27C401.7 143.07 399.5 153.47 395.1 163.47C392.3 169.77 387.6 172.27 382.5 170.07C377.4 167.87 375.8 162.77 378.6 156.47C384.7 142.17 385.8 127.77 380.4 113.07C376.4 102.17 369.5 93.4705 360.3 86.6705C357.1 84.2705 354.7 81.5705 355.2 77.3705C356 70.1705 363.8 66.9705 369.9 71.3705C385 82.2705 395.3 96.6705 399.7 114.87C401 120.47 401.5 126.37 401.9 129.27Z" fill="#007DB6"/>
<path d="M371.5 134.77C370.6 138.07 369.3 144.17 367.2 149.97C365.3 155.17 360 157.07 355.3 155.07C350.7 153.07 348.9 148.27 350.8 143.17C355.7 129.67 353.6 121.47 342.7 112.37C338.6 108.87 337.8 103.77 340.7 99.7705C343.7 95.6705 349.1 94.8705 353.6 98.1705C365.1 106.47 370.9 117.77 371.5 134.77Z" fill="#007DB6"/>
<path d="M366.1 273.171C366.1 279.671 366.1 285.771 366.1 292.371C360.6 292.371 355.3 292.471 350 292.271C349 292.171 347.3 290.571 347.2 289.571C346.9 285.071 346.9 280.571 347.2 276.171C347.3 275.171 348.9 273.371 349.9 273.371C355.3 273.071 360.6 273.171 366.1 273.171Z" fill="#007DB6"/>
<path d="M366.2 346.871C366.2 353.471 366.2 359.47 366.2 365.97C360.6 365.97 355.2 366.171 349.8 365.771C348.9 365.671 347.4 363.67 347.3 362.47C347 358.47 347.2 354.47 347.2 350.47C347.2 347.97 348.4 346.771 350.9 346.771C355.8 346.871 360.7 346.871 366.2 346.871Z" fill="#007DB6"/>
<path d="M238.5 278.271C238.5 281.871 238.5 285.171 238.5 288.771C234.9 288.771 231.5 288.771 227.8 288.771C227.8 285.271 227.8 281.871 227.8 278.271C231.3 278.271 234.7 278.271 238.5 278.271Z" fill="#007DB6"/>
<path d="M162.1 351.171C165.8 351.171 169.2 351.171 172.7 351.171C172.7 354.771 172.7 358.271 172.7 361.871C169.2 361.871 165.8 361.871 162.1 361.871C162.1 358.271 162.1 354.871 162.1 351.171Z" fill="#007DB6"/>
<path d="M238.5 205.37C238.5 208.67 238.5 212.07 238.5 215.67C235 215.67 231.6 215.67 227.9 215.67C227.9 212.47 227.9 209.17 227.9 205.37C231.2 205.37 234.8 205.37 238.5 205.37Z" fill="#007DB6"/>
<path d="M238.5 351.271C238.5 354.771 238.5 358.271 238.5 361.871C235 361.871 231.5 361.871 227.9 361.871C227.9 358.471 227.9 354.971 227.9 351.271C231.2 351.271 234.6 351.271 238.5 351.271Z" fill="#007DB6"/>
<path d="M162.1 288.671C162.1 285.071 162.1 281.771 162.1 278.271C165.7 278.271 169.1 278.271 172.7 278.271C172.7 281.671 172.7 285.071 172.7 288.671C169.3 288.671 165.9 288.671 162.1 288.671Z" fill="#007DB6"/>
<path d="M172.7 215.771C169.1 215.771 165.7 215.771 162.4 215.771C162.2 215.471 162.1 215.371 162.1 215.271C160.6 205.171 162.3 203.471 172.7 205.371C172.7 208.771 172.7 212.171 172.7 215.771Z" fill="#007DB6"/>
</svg>
