<svg width="66" height="66" viewBox="0 0 66 66" fill="none" xmlns="http://www.w3.org/2000/svg">
<circle cx="33.1614" cy="32.7801" r="32.7801" fill="#F1F5F9"/>
<g clip-path="url(#clip0)">
<path d="M42.5074 50.4238L41.8787 52.9941C39.9924 53.7386 38.4856 54.3052 37.3636 54.6948C36.2404 55.0856 34.9353 55.28 33.4483 55.28C31.1648 55.28 29.3886 54.7206 28.1218 53.6095C26.855 52.494 26.2214 51.0804 26.2214 49.3655C26.2214 48.7017 26.2674 48.0189 26.363 47.3231C26.4593 46.6266 26.6126 45.8422 26.8223 44.9654L29.1797 36.6217C29.3894 35.8228 29.5676 35.0658 29.7104 34.3499C29.8552 33.6385 29.925 32.9839 29.925 32.3947C29.925 31.3291 29.7044 30.5838 29.2652 30.1648C28.826 29.7469 27.9879 29.5348 26.7437 29.5348C26.1343 29.5348 25.5079 29.6324 24.8695 29.8212C24.2282 30.0107 23.6801 30.1938 23.22 30.364L23.8503 27.7917C25.3946 27.1629 26.8707 26.6245 28.2827 26.1777C29.6947 25.7296 31.0288 25.5053 32.2908 25.5053C34.5586 25.5053 36.3086 26.0534 37.5374 27.1496C38.7663 28.2466 39.3806 29.6687 39.3806 31.4211C39.3806 31.7837 39.3402 32.4225 39.2535 33.3356C39.1688 34.2507 39.0111 35.0892 38.7812 35.8518L36.434 44.162C36.2416 44.8295 36.0686 45.5925 35.9182 46.4512C35.7629 47.3042 35.6887 47.9559 35.6887 48.3931C35.6887 49.4966 35.9347 50.25 36.4279 50.6504C36.9248 51.0509 37.7806 51.2502 38.9962 51.2502C39.5669 51.2502 40.2162 51.1489 40.9377 50.9501C41.6572 50.7513 42.1819 50.5766 42.5074 50.4238ZM43.1027 15.5351C43.1027 16.983 42.557 18.2196 41.4604 19.2363C40.3666 20.2567 39.0486 20.7673 37.5068 20.7673C35.9601 20.7673 34.6389 20.2567 33.5326 19.2363C32.4283 18.2192 31.875 16.983 31.875 15.5351C31.875 14.0901 32.4283 12.8515 33.5326 11.8219C34.6368 10.7938 35.9605 10.28 37.5068 10.28C39.0482 10.28 40.3666 10.7951 41.4604 11.8219C42.5578 12.8515 43.1027 14.0905 43.1027 15.5351Z" fill="#007DB6"/>
</g>
<defs>
<clipPath id="clip0">
<rect width="45" height="45" fill="white" transform="translate(10.6614 10.28)"/>
</clipPath>
</defs>
</svg>
