<svg width="512" height="513" viewBox="0 0 512 513" fill="none" xmlns="http://www.w3.org/2000/svg">
<g clip-path="url(#clip0)">
<path d="M446.406 136.826C458.07 65.3903 405.169 0.670532 336.001 0.670532C298.954 0.670532 266.115 19.3856 245.726 48.2183C229.776 39.1298 211.469 33.9586 192 33.9586C135.475 33.9586 88.7396 77.5197 81.1018 134.129C35.7286 137.793 0 177.224 0 225.363V225.364C0 275.921 39.3989 316.906 87.9998 316.906H150.588V422.318H117.88C111.664 404.79 94.9258 392.2 75.2941 392.2C50.3848 392.2 30.1176 412.465 30.1176 437.376C30.1176 462.288 50.3848 482.553 75.2941 482.553C94.9258 482.553 111.664 469.963 117.88 452.435H180.706V316.906H240.941V196.435H271.059V316.906H331.294V452.435H394.12C400.336 469.963 417.074 482.553 436.706 482.553C461.617 482.553 481.882 462.288 481.882 437.376C481.882 412.465 461.617 392.2 436.706 392.2C417.074 392.2 400.336 404.79 394.12 422.318H361.412V316.906H424C472.601 316.906 512 275.921 512 225.364V225.363C512 182.862 484.153 147.136 446.406 136.826Z" fill="#007DB6"/>
<path d="M240.941 424.908C223.414 431.124 210.823 447.862 210.823 467.494C210.823 492.405 231.091 512.67 256 512.67C280.911 512.67 301.176 492.405 301.176 467.494C301.176 447.862 288.586 431.124 271.059 424.908V316.906H240.941V424.908Z" fill="#007DB6"/>
</g>
<defs>
<clipPath id="clip0">
<rect width="512" height="512" fill="white" transform="translate(0 0.670532)"/>
</clipPath>
</defs>
</svg>
