<svg width="41" height="41" viewBox="0 0 41 41" fill="none" xmlns="http://www.w3.org/2000/svg">
<path d="M40.9721 4.13821C41.172 3.20779 40.2598 2.42327 39.37 2.7628L0.772749 17.497C0.30822 17.6744 0.000963189 18.1196 2.2604e-06 18.6168C-0.000958668 19.1141 0.304536 19.5605 0.768424 19.7397L11.6111 23.9273V37.1171C11.6111 37.6735 11.9932 38.157 12.5345 38.2857C13.0722 38.4136 13.6329 38.1577 13.885 37.6576L18.3694 28.7588L29.3131 36.8805C29.9788 37.3746 30.9356 37.0603 31.1779 36.2664C41.3957 2.76544 40.954 4.22237 40.9721 4.13821V4.13821ZM31.4445 8.35973L12.6421 21.7502L4.552 18.6257L31.4445 8.35973ZM14.0135 23.7227L30.4027 12.0509C16.3 26.9285 17.0365 26.1454 16.975 26.2282C16.8837 26.3511 17.134 25.872 14.0135 32.0644V23.7227ZM29.3769 33.9363L19.744 26.7873L37.1617 8.41258L29.3769 33.9363Z" fill="#007DB6"/>
</svg>
