<svg width="24" height="24" viewBox="0 0 24 24" fill="none" xmlns="http://www.w3.org/2000/svg">
<path fill-rule="evenodd" clip-rule="evenodd" d="M8.75 2C8.75 1.58579 8.41421 1.25 8 1.25C7.58579 1.25 7.25 1.58579 7.25 2V3.25H6C3.92893 3.25 2.25 4.92893 2.25 7V17C2.25 19.0711 3.92893 20.75 6 20.75H18C20.0711 20.75 21.75 19.0711 21.75 17V7C21.75 4.92893 20.0711 3.25 18 3.25H16.75V2C16.75 1.58579 16.4142 1.25 16 1.25C15.5858 1.25 15.25 1.58579 15.25 2V3.25H8.75V2ZM15.25 6V4.75H8.75V6C8.75 6.41421 8.41421 6.75 8 6.75C7.58579 6.75 7.25 6.41421 7.25 6V4.75H6C4.75736 4.75 3.75 5.75736 3.75 7V8.25H20.25V7C20.25 5.75736 19.2426 4.75 18 4.75H16.75V6C16.75 6.41421 16.4142 6.75 16 6.75C15.5858 6.75 15.25 6.41421 15.25 6ZM20.25 9.75H3.75V17C3.75 18.2426 4.75736 19.25 6 19.25H18C19.2426 19.25 20.25 18.2426 20.25 17V9.75ZM7.5 13.5C8.05228 13.5 8.5 13.0523 8.5 12.5C8.5 11.9477 8.05228 11.5 7.5 11.5C6.94772 11.5 6.5 11.9477 6.5 12.5C6.5 13.0523 6.94772 13.5 7.5 13.5ZM13 12.5C13 13.0523 12.5523 13.5 12 13.5C11.4477 13.5 11 13.0523 11 12.5C11 11.9477 11.4477 11.5 12 11.5C12.5523 11.5 13 11.9477 13 12.5ZM16.5 13.5C17.0523 13.5 17.5 13.0523 17.5 12.5C17.5 11.9477 17.0523 11.5 16.5 11.5C15.9477 11.5 15.5 11.9477 15.5 12.5C15.5 13.0523 15.9477 13.5 16.5 13.5ZM8.5 16C8.5 16.5523 8.05228 17 7.5 17C6.94772 17 6.5 16.5523 6.5 16C6.5 15.4477 6.94772 15 7.5 15C8.05228 15 8.5 15.4477 8.5 16ZM12 17C12.5523 17 13 16.5523 13 16C13 15.4477 12.5523 15 12 15C11.4477 15 11 15.4477 11 16C11 16.5523 11.4477 17 12 17ZM17.5 16C17.5 16.5523 17.0523 17 16.5 17C15.9477 17 15.5 16.5523 15.5 16C15.5 15.4477 15.9477 15 16.5 15C17.0523 15 17.5 15.4477 17.5 16Z" fill="#007DB6"/>
</svg>
