<svg width="24" height="24" viewBox="0 0 24 24" fill="none" xmlns="http://www.w3.org/2000/svg">
<path d="M9 15.5C9 16.8807 7.88071 18 6.5 18C5.11929 18 4 16.8807 4 15.5V12.5C4 11.1193 5.11929 10 6.5 10C7.88071 10 9 11.1193 9 12.5V15.5ZM15 15.5C15 16.8807 13.8807 18 12.5 18C11.1193 18 10 16.8807 10 15.5V8.5C10 7.11929 11.1193 6 12.5 6C13.8807 6 15 7.11929 15 8.5V15.5ZM21 15.5C21 16.8807 19.8807 18 18.5 18C17.1193 18 16 16.8807 16 15.5V4.5C16 3.11929 17.1193 2 18.5 2C19.8807 2 21 3.11929 21 4.5V15.5ZM22 21C22 21.5523 21.5523 22 21 22H4C3.44771 22 3 21.5523 3 21C3 20.4477 3.44772 20 4 20H21C21.5523 20 22 20.4477 22 21Z" fill="#B2CBE0"/>
</svg>
