<svg width="25" height="24" viewBox="0 0 25 24" fill="none" xmlns="http://www.w3.org/2000/svg">
<path fill-rule="evenodd" clip-rule="evenodd" d="M1.38655 2.89794C0.986454 3.00514 0.749018 3.4164 0.856225 3.8165C0.963431 4.21659 1.37468 4.45403 1.77478 4.34683L2.74071 4.08801C3.40754 3.90933 4.09296 4.30506 4.27164 4.97189L7.46159 16.8769C5.89816 17.6556 5.04541 19.4507 5.51497 21.2032C6.051 23.2036 8.10726 24.3908 10.1078 23.8548C11.8602 23.3852 12.9885 21.7491 12.8811 20.0059L22.3713 17.463C22.7714 17.3558 23.0088 16.9445 22.9016 16.5444C22.7944 16.1443 22.3832 15.9069 21.9831 16.0141L12.4928 18.557C11.8244 17.2149 10.407 16.3965 8.91048 16.4887L5.72053 4.58366C5.32744 3.11663 3.81951 2.24603 2.35248 2.63912L1.38655 2.89794ZM8.55485 18.0592C9.75514 17.7376 10.9889 18.4499 11.3105 19.6502C11.6321 20.8505 10.9198 22.0843 9.71953 22.4059C8.51923 22.7275 7.28547 22.0152 6.96386 20.8149C6.64224 19.6146 7.35455 18.3809 8.55485 18.0592ZM11.4687 3.8199C9.46822 4.35593 8.28103 6.41219 8.81707 8.41269L10.1112 13.2423C10.6472 15.2428 12.7035 16.43 14.704 15.894L19.5336 14.5999C21.5341 14.0638 22.7213 12.0076 22.1852 10.0071L20.8911 5.17745C20.3551 3.17695 18.2988 1.98977 16.2983 2.5258L11.4687 3.8199ZM15.2291 6.14555C14.8704 5.93844 14.4117 6.06135 14.2046 6.42007L12.7904 8.86956C12.5833 9.22828 12.7062 9.68697 13.0649 9.89408C13.4236 10.1012 13.8823 9.97828 14.0894 9.61956L14.5983 8.73815L15.4238 11.8188C15.531 12.2189 15.9422 12.4563 16.3423 12.3491C16.7424 12.2419 16.9798 11.8307 16.8726 11.4306L16.0472 8.34992L16.9286 8.8588C17.2873 9.06591 17.746 8.943 17.9531 8.58428C18.1602 8.22556 18.0373 7.76687 17.6786 7.55977L15.2291 6.14555Z" fill="#B2CBE0"/>
</svg>
