<?xml version="1.0" encoding="utf-8"?>
<!-- Generator: Adobe Illustrator 25.3.1, SVG Export Plug-In . SVG Version: 6.00 Build 0)  -->
<svg version="1.1" id="Layer_1" xmlns="http://www.w3.org/2000/svg" xmlns:xlink="http://www.w3.org/1999/xlink" x="0px" y="0px"
	 viewBox="0 0 498 157" style="enable-background:new 0 0 498 157;" xml:space="preserve">
<style type="text/css">
	.st0{fill:#007DB6;}
	.st1{fill-rule:evenodd;clip-rule:evenodd;fill:#007DB6;}
	.st2{fill-rule:evenodd;clip-rule:evenodd;fill:#00AEEF;}
</style>
<rect x="220.5" y="73.5" class="st0" width="277.5" height="2.7"/>
<g>
	<path class="st1" d="M34.1,69.3C61.7,33,97.5,11.8,141.6,6.1L155.3,64C123.8,35.7,83.4,37.5,34.1,69.3z"/>
	<path class="st2" d="M73.9,61.4c51.1-7.7,90.8,5.2,113.6,48.2L154.9,145C162.5,87.9,133.3,60.9,73.9,61.4z"/>
	<path class="st1" d="M0,95.1l25.6,49.6c3.8-59.1,77.2-86.8,120.2-28.1C130,66.9,61.8,46.9,0,95.1z"/>
	<path class="st2" d="M67.2,25c-91-11.3-8.1,121.2,72.3,125v1.9c-36.1-0.5-97.2-34.4-120-89.6C7.3,24,36.3,14.1,68,23.4L67.2,25z"/>
</g>
<path class="st1" d="M242.9,23.2c0.3-0.3,0.5-0.6,0.7-1.1c0.3-0.6,0.6-0.9,0.9-0.9c0.5,0,0.8,0.5,0.9,1.3l1,7.6l0.1,0.9
	c0,0.5-0.3,0.7-0.7,0.7s-0.6-0.1-0.8-0.3s-0.4-0.7-0.9-1.7c-0.8-1.6-2.1-3.1-3.9-4.5s-3.7-2-5.5-2s-3.2,0.5-4.4,1.5
	s-1.8,2.3-1.8,3.9c0,1.3,0.5,2.3,1.6,3.3c1.1,1,3.2,2,6.4,2.9c4.9,1.4,8.3,3.2,10,5.2c1.7,2.1,2.6,4.4,2.6,6.9
	c0,2.6-0.6,4.8-1.9,6.6c-1.3,1.8-2.8,3.2-4.5,4.1c-1.8,1-4.1,1.5-6.8,1.5c-1.5,0-3.2-0.3-4.9-0.7s-3.4-1.2-5.2-2.1
	c-0.4,0.5-0.7,1-0.9,1.7c-0.3,0.7-0.6,1.2-1.1,1.2s-0.7-0.5-0.8-1.5l-1-10.1c0-0.5-0.1-0.7-0.1-0.8c0-0.5,0.3-0.8,0.8-0.8
	c0.4,0,0.8,0.5,1.2,1.3c1.1,2.8,2.6,5.1,4.6,6.9c1.9,1.9,4.1,2.8,6.7,2.8c2.2,0,4-0.6,5.2-2c1.3-1.3,2-2.8,2-4.4s-0.6-3.1-1.8-4.1
	c-1.3-1.2-3.4-2.3-6.7-3.2c-3.1-1-5.4-2-6.9-2.9s-2.7-2.3-3.6-3.9s-1.4-3.2-1.4-4.9c0-2.9,1.1-5.4,3.3-7.5s5.3-3.1,9.1-3.1
	C236.7,21.4,239.5,22,242.9,23.2L242.9,23.2z M265.9,56.1c-1.2,1.1-2.3,1.9-3.4,2.4c-1.2,0.5-2.3,0.8-3.5,0.8
	c-1.9,0-3.3-0.5-4.3-1.7s-1.5-2.5-1.5-4.1c0-1.3,0.3-2.4,0.9-3.4s1.4-1.8,2.3-2.3c0.9-0.5,2.4-1.2,4.5-2c1.8-0.6,3-1.2,3.5-1.5
	c0.6-0.4,1.1-0.9,1.5-1.6c0.4-0.7,0.6-1.6,0.6-2.7c0-1.3-0.3-2.3-0.9-3s-1.4-1.1-2.5-1.1c-0.9,0-1.5,0.3-2,0.7
	c-0.4,0.5-0.7,1.3-0.9,2.3c-0.4,2.1-1.5,3.2-3.4,3.2c-0.7,0-1.4-0.3-1.9-0.6c-0.5-0.5-0.8-1.1-0.8-1.9c0-1.8,1-3.1,2.9-4
	c1.9-0.9,4.2-1.3,6.8-1.3c2.3,0,4.1,0.4,5.6,1.1c1.4,0.7,2.3,1.5,2.8,2.4c0.4,0.9,0.6,2.3,0.6,4.3l-0.1,6.6c0,3.5,0.1,5.7,0.4,6.7
	s0.7,1.4,1.4,1.4c0.1,0,0.3,0,0.5,0c0.4,0,0.6-0.1,0.7-0.1c0.7,0,1.2,0.2,1.2,0.6c0,0.3-0.2,0.5-0.5,0.7c-0.4,0.2-1.3,0.5-2.8,0.7
	c-1.5,0.3-3,0.4-4.2,0.4c-1.3,0-2.2-0.3-2.6-0.7C266.2,58.1,266,57.3,265.9,56.1L265.9,56.1z M266.2,44.9c-0.5,0.5-1.5,1.3-3.1,2.2
	c-1.5,0.8-2.5,1.5-3.1,2.2c-0.5,0.6-0.8,1.6-0.8,2.8c0,1.3,0.3,2.3,0.8,3s1.2,1,2,1c1.1,0,2.1-0.5,3-1.5s1.3-2.7,1.3-5.2
	C266.4,48.5,266.4,47,266.2,44.9L266.2,44.9z M306.1,46.1c0,3.4-1.3,6.5-3.8,9.1s-5.7,4-9.6,4c-3.6,0-6.6-1.1-9-3.3
	c-2.4-2.3-3.6-5.2-3.6-8.9c0-3.8,1.3-6.8,3.9-9.2c2.5-2.3,5.7-3.5,9.4-3.5c3.7,0,6.8,1.1,9.2,3.3C304.9,39.8,306.1,42.7,306.1,46.1
	L306.1,46.1z M298.5,48c0-3.1-0.5-5.8-1.5-8.3c-1-2.4-2.4-3.7-4.3-3.7c-1.6,0-3,0.9-3.9,2.6c-0.9,1.7-1.3,4.1-1.3,7.2
	c0,3.4,0.5,6.1,1.5,8.3s2.4,3.2,4.2,3.2c1.7,0,3.1-0.9,4-2.6C298.1,53.1,298.5,50.9,298.5,48L298.5,48z M330.3,38.8
	c3.8,0.8,6.7,2.1,8.5,3.8c1.9,1.7,2.9,3.8,2.9,6.4c0,2.2-0.7,4-2.1,5.8s-3.1,2.9-5.1,3.4s-5,0.9-8.8,0.9c-0.9,0-2.4-0.1-4.4-0.2
	c-1.6-0.1-3-0.2-3.9-0.2c-1.3,0-3,0.1-5,0.3c-0.9,0.1-1.4,0.1-1.8,0.1c-0.7,0-1.1-0.3-1.1-0.8s0.3-0.6,0.9-0.7
	c1.2-0.2,2-0.4,2.5-0.6c0.5-0.3,1-0.7,1.3-1.3c0.4-0.6,0.4-1.5,0.4-2.9l0.3-13c0-4-0.1-7.3-0.2-9.7s-0.3-4-0.5-4.7
	c-0.3-0.7-0.5-1.2-1-1.4c-0.4-0.3-1-0.5-1.9-0.5c-0.7,0-1.2-0.1-1.4-0.3c-0.2-0.1-0.4-0.4-0.4-0.6c0-0.4,0.2-0.6,0.6-0.7
	s1.6-0.1,3.7-0.1c3.7,0,7.1-0.1,10.3-0.4c1.9-0.2,3.4-0.2,4.5-0.2c3.4,0,6.1,0.7,8.1,2.3s3.1,3.5,3.1,6.1
	C339.9,33.8,336.8,36.9,330.3,38.8L330.3,38.8z M322.8,38.5c6.3,0,9.5-2.8,9.5-8.3c0-2.4-0.5-4.2-1.7-5.5c-1.2-1.2-2.4-1.8-3.9-1.8
	c-1.1,0-2.3,0.3-3.9,0.8c-0.2,1.9-0.3,3.9-0.3,5.9C322.5,31.3,322.6,34.2,322.8,38.5L322.8,38.5z M322.8,40.6
	c-0.2,4-0.3,7.2-0.3,9.8c0,3.4,0.2,5.4,0.5,5.9s1.2,0.7,2.6,0.7c2.6,0,4.6-0.7,5.9-2.2c1.4-1.4,2-3.4,2-5.9s-0.7-4.6-2.1-6.1
	c-1.4-1.6-3.4-2.4-6.2-2.4C324.6,40.4,323.7,40.5,322.8,40.6L322.8,40.6z M359.4,56.1c-1.2,1.1-2.3,1.9-3.4,2.4
	c-1.2,0.5-2.3,0.8-3.5,0.8c-1.9,0-3.3-0.5-4.3-1.7s-1.5-2.5-1.5-4.1c0-1.3,0.3-2.4,0.9-3.4s1.4-1.8,2.3-2.3s2.4-1.2,4.5-2
	c1.8-0.6,3-1.2,3.5-1.5c0.6-0.4,1.1-0.9,1.5-1.6c0.4-0.7,0.6-1.6,0.6-2.7c0-1.3-0.3-2.3-0.9-3s-1.4-1.1-2.5-1.1
	c-0.9,0-1.5,0.3-2,0.7c-0.4,0.5-0.7,1.3-0.9,2.3c-0.5,2.1-1.5,3.2-3.4,3.2c-0.7,0-1.4-0.3-1.9-0.6c-0.5-0.5-0.8-1.1-0.8-1.9
	c0-1.8,1-3.1,2.9-4s4.2-1.3,6.8-1.3c2.3,0,4.1,0.4,5.6,1.1c1.4,0.7,2.3,1.5,2.8,2.4c0.4,0.9,0.6,2.3,0.6,4.3l-0.1,6.7
	c0,3.5,0.1,5.7,0.4,6.7s0.7,1.4,1.4,1.4c0.1,0,0.3,0,0.4,0c0.4,0,0.6-0.1,0.7-0.1c0.7,0,1.2,0.2,1.2,0.6c0,0.3-0.2,0.5-0.5,0.7
	c-0.4,0.2-1.3,0.4-2.8,0.7s-3,0.5-4.2,0.5c-1.3,0-2.2-0.3-2.6-0.7C359.7,58.1,359.5,57.3,359.4,56.1L359.4,56.1z M359.7,44.9
	c-0.5,0.5-1.5,1.3-3.2,2.2c-1.5,0.8-2.5,1.5-3.1,2.2c-0.5,0.6-0.8,1.6-0.8,2.8c0,1.3,0.3,2.3,0.8,3s1.2,1,2,1c1.1,0,2.1-0.5,3-1.5
	s1.4-2.7,1.4-5.2C359.9,48.5,359.8,47,359.7,44.9L359.7,44.9z M373.7,46.9c0-3.5,1.2-6.5,3.6-9c2.3-2.5,5.3-3.7,8.9-3.7
	c2.3,0,4.4,0.5,6.2,1.7c1.8,1.2,2.7,2.5,2.7,4c0,0.9-0.3,1.7-0.8,2.2s-1.3,0.8-2.1,0.8c-1.6,0-2.7-1.2-3.4-3.4
	c-0.4-1.3-0.8-2.2-1.2-2.7c-0.5-0.5-1.1-0.8-2-0.8c-1.5,0-2.6,0.7-3.4,2.3c-0.7,1.5-1.2,3.8-1.2,6.8c0,3.5,0.6,6.3,1.9,8.4
	c1.3,2.1,2.9,3.2,4.9,3.2c2.6,0,4.5-1.6,5.6-4.8c0.4-1,0.7-1.5,1.3-1.5c0.5,0,0.8,0.3,0.8,0.8c0,1.6-0.8,3.3-2.4,5.2
	s-4.1,2.8-7.3,2.8c-3.5,0-6.4-1.2-8.6-3.5C374.8,53.5,373.7,50.5,373.7,46.9L373.7,46.9z M419.5,59.3c-0.8,0-4.1-0.1-10-0.2h-6
	L400,59c-0.8,0-1.4-0.1-1.6-0.2c-0.2-0.1-0.4-0.4-0.4-0.7c0-0.5,0.4-0.8,1.2-0.8c1.5,0,2.6-0.3,3.3-0.8c0.7-0.5,1.2-1.4,1.4-2.9
	c0.2-1.3,0.4-4.1,0.5-8.4c0.2-4.1,0.3-8,0.3-11.5c0-5-0.3-7.9-0.7-9.1c-0.5-1.1-1.6-1.7-3.5-1.8c-0.6-0.1-1-0.4-1-0.8
	c0-0.5,0.3-0.7,0.9-0.7c0.4,0,1.5,0.1,3.6,0.3c2.3,0.2,3.8,0.3,4.7,0.3l10.4-0.2c3.5,0,6.8,0.7,10.1,2c3.2,1.4,5.9,3.5,7.7,6.6
	c1.9,3.1,2.9,6.5,2.9,10.3c0,2.9-0.5,5.5-1.7,8c-1.1,2.5-2.7,4.6-4.9,6.3c-2.2,1.7-4.2,2.8-6.3,3.3
	C424.8,59.1,422.3,59.3,419.5,59.3L419.5,59.3z M417.6,57.3c3.9,0,6.9-1.4,9.2-4.1c2.3-2.7,3.3-6.7,3.3-11.7c0-5.1-1.2-9.4-3.6-12.7
	s-5.9-5-10.3-5c-1.5,0-2.4,0.1-2.8,0.3c-0.3,0.2-0.4,0.4-0.5,0.5c-0.1,0.2-0.2,2.3-0.4,6.2l-0.4,9.4c-0.1,2.3-0.1,5.2-0.1,8.6
	c0,2.6,0.1,4.3,0.4,5.3s0.7,1.7,1.4,2.3C414.7,57.1,416,57.3,417.6,57.3L417.6,57.3z M457.6,56.1c-1.2,1.1-2.3,1.9-3.4,2.4
	c-1.2,0.5-2.3,0.8-3.5,0.8c-1.9,0-3.3-0.5-4.3-1.7s-1.5-2.5-1.5-4.1c0-1.3,0.3-2.4,0.9-3.4s1.4-1.8,2.3-2.3s2.4-1.2,4.5-2
	c1.8-0.6,3-1.2,3.5-1.5c0.6-0.4,1.1-0.9,1.5-1.6c0.4-0.7,0.6-1.6,0.6-2.7c0-1.3-0.3-2.3-0.9-3s-1.4-1.1-2.5-1.1
	c-0.9,0-1.5,0.3-2,0.7c-0.4,0.5-0.7,1.3-0.9,2.3c-0.5,2.1-1.5,3.2-3.4,3.2c-0.7,0-1.4-0.3-1.9-0.6c-0.5-0.5-0.8-1.1-0.8-1.9
	c0-1.8,1-3.1,2.9-4c1.9-0.8,4.2-1.3,6.8-1.3c2.3,0,4.1,0.4,5.6,1.1c1.4,0.7,2.3,1.5,2.8,2.4c0.4,0.9,0.6,2.3,0.6,4.3l-0.1,6.6
	c0,3.5,0.1,5.7,0.4,6.7s0.7,1.4,1.4,1.4c0.1,0,0.3,0,0.4,0c0.4,0,0.6-0.1,0.7-0.1c0.7,0,1.2,0.2,1.2,0.6c0,0.3-0.2,0.5-0.4,0.7
	c-0.4,0.2-1.3,0.5-2.8,0.7c-1.5,0.3-3,0.4-4.2,0.4s-2.2-0.3-2.6-0.7C457.9,58.1,457.7,57.3,457.6,56.1L457.6,56.1z M457.9,44.9
	c-0.5,0.5-1.5,1.3-3.2,2.2c-1.5,0.8-2.5,1.5-3.1,2.2c-0.5,0.6-0.8,1.6-0.8,2.8c0,1.3,0.3,2.3,0.8,3s1.2,1,2,1c1.1,0,2.1-0.5,3-1.5
	s1.4-2.7,1.4-5.2C458.1,48.5,458,47,457.9,44.9L457.9,44.9z M480,34.8c0.1,1.9,0.2,4.5,0.2,7.8c0,5,0.1,8.2,0.2,9.6
	c0.1,1.4,0.5,2.4,1.1,3.2s1.4,1.1,2.2,1.1c1,0,1.9-0.4,2.9-1.1c1-0.7,1.7-1.7,2.2-2.9c0.4-1.2,0.7-3.1,0.7-5.8l0.1-6.1
	c0-1.6-0.1-2.7-0.3-3.2c-0.2-0.5-0.8-0.8-1.8-0.8c-1.1-0.1-1.6-0.4-1.6-0.9c0-0.3,0.1-0.5,0.4-0.6s1-0.1,2.1-0.1
	c2.5,0,5-0.1,7.1-0.2c0.1,0.7,0.1,4.7,0.1,11.9c0,5.8,0.1,9,0.2,9.5s0.7,0.8,1.8,0.9c0.6,0.1,1,0.4,1,0.8c0,0.5-0.4,0.8-1.1,0.8
	c-0.2,0-0.4,0-0.7,0c-0.5,0-1.1-0.1-1.8-0.1c-2.4,0-3.8,0-4,0s-0.5,0-0.7,0c-0.4,0-0.5-0.1-0.6-0.2c-0.1-0.1-0.1-0.5-0.1-1.1
	c0-1,0.1-2,0.2-2.9c-1.3,1.5-2.6,2.7-4,3.5s-2.9,1.2-4.4,1.2c-4.7,0-7-2.6-7-8v-8.6c0-3-0.1-4.7-0.4-5.2c-0.2-0.5-0.7-0.8-1.7-1
	c-0.8-0.1-1.2-0.4-1.2-0.7c0-0.5,0.4-0.7,1.1-0.7C476.7,34.9,479.4,34.8,480,34.8z"/>
<g>
	<path class="st0" d="M253.3,89.9v8.5h-12.1v36.5h-8.9V98.4h-12.1v-8.5H253.3z"/>
	<path class="st0" d="M267.1,126.6h19v8.5h-27.9V89.9h27.5v8.5h-18.6v9.7h17.1v8.4h-17.1V126.6z"/>
	<path class="st0" d="M301.2,126.6h17.2v8.5h-26.1V89.9h8.9V126.6z"/>
	<path class="st0" d="M332.4,126.6h19v8.5h-27.9V89.9H351v8.5h-18.7v9.7h17.1v8.4h-17.1L332.4,126.6L332.4,126.6L332.4,126.6z"/>
	<path class="st0" d="M355.2,112.5c0-6.7,2.2-12.2,6.7-16.6c4.4-4.5,10.1-6.8,16.8-6.8c4,0,7.8,1,11.3,2.9c3.4,1.9,6.1,4.4,8,7.7
		l-7.6,4.4c-2.3-4.3-6.3-6.5-11.7-6.5c-4.4,0-7.9,1.3-10.6,4.1c-2.6,2.8-4,6.4-4,10.7c0,4.3,1.4,7.8,4,10.6
		c2.7,2.8,6.2,4.1,10.6,4.1c2.6,0,4.9-0.5,7-1.7c2.1-1.1,3.6-2.6,4.7-4.7l7.6,4.4c-1.9,3.2-4.7,5.9-8,7.7c-3.5,1.9-7.3,2.9-11.3,2.9
		c-6.8,0-12.3-2.3-16.8-6.8C357.4,124.8,355.2,119.2,355.2,112.5z"/>
	<path class="st0" d="M407.7,129.2c-4.5-4.6-6.8-10.2-6.8-16.7c0-6.6,2.3-12.2,6.8-16.7c4.6-4.6,10.1-6.8,16.6-6.8
		c6.6,0,12.1,2.3,16.6,6.8c4.6,4.5,6.8,10.1,6.8,16.7s-2.3,12.2-6.8,16.7c-4.6,4.5-10.1,6.8-16.6,6.8S412.3,133.7,407.7,129.2z
		 M434.7,123.1c2.8-2.8,4.2-6.3,4.2-10.6c0-4.3-1.4-7.8-4.2-10.6c-2.8-2.8-6.2-4.2-10.4-4.2c-4.1,0-7.6,1.4-10.4,4.2
		c-2.8,2.8-4.2,6.3-4.2,10.6c0,4.3,1.4,7.8,4.2,10.6c2.8,2.8,6.2,4.1,10.4,4.1C428.6,127.3,432,125.9,434.7,123.1z"/>
	<path class="st0" d="M498.2,89.9V135h-8.8v-29.3l-12.7,21h-1L463,105.9V135h-8.9V89.9h9.2l13,21.3l12.9-21.3L498.2,89.9L498.2,89.9
		z"/>
</g>
</svg>
